<?xml version="1.0" standalone="no"?>
<!DOCTYPE svg PUBLIC "-//W3C//DTD SVG 20010904//EN"
 "http://www.w3.org/TR/2001/REC-SVG-20010904/DTD/svg10.dtd">
<svg version="1.0" xmlns="http://www.w3.org/2000/svg"
 width="512.000000pt" height="512.000000pt" viewBox="0 0 512.000000 512.000000"
 preserveAspectRatio="xMidYMid meet">
<metadata>
Created by potrace 1.14, written by Peter Selinger 2001-2017
</metadata>
<g transform="translate(0.000000,512.000000) scale(0.100000,-0.100000)"
fill="#000000" stroke="none">
<path d="M1672 4613 c-4 -1 -81 -4 -172 -6 -91 -3 -205 -12 -253 -21 -353 -64
-623 -319 -702 -660 -27 -116 -36 -225 -38 -463 -1 -87 -6 -149 -11 -145 -5 3
-6 -1 -1 -8 12 -19 13 -240 1 -233 -5 4 -6 1 -1 -8 12 -18 13 -479 1 -472 -5
4 -5 0 -1 -8 13 -20 13 -619 0 -619 -7 0 -7 -3 0 -8 15 -10 16 -75 2 -84 -7
-4 -7 -8 -2 -8 15 0 16 -43 2 -52 -7 -4 -7 -8 -2 -8 6 0 12 -16 13 -36 2 -27
-1 -34 -10 -28 -10 5 -11 4 0 -7 16 -17 16 -49 0 -49 -9 0 -9 -3 1 -9 13 -8
13 -12 0 -27 -8 -10 -9 -15 -3 -11 9 5 12 -24 14 -106 1 -115 7 -193 15 -214
2 -7 -1 -15 -7 -19 -7 -5 -7 -9 1 -13 6 -4 12 -32 14 -63 1 -31 5 -54 9 -51 5
2 9 -3 9 -11 3 -29 4 -34 11 -42 4 -4 3 -13 -4 -21 -9 -11 -8 -13 3 -11 8 2
13 -4 13 -14 -1 -10 3 -18 8 -18 6 0 8 -7 4 -15 -3 -8 -2 -15 3 -15 5 0 22
-26 37 -58 16 -31 35 -63 41 -70 12 -13 17 -27 14 -44 0 -4 5 -5 12 -2 12 4
54 -54 49 -69 -1 -5 1 -6 5 -4 13 8 46 -20 38 -32 -3 -7 0 -8 9 -5 18 7 21 -6
6 -24 -7 -9 -7 -9 2 -2 16 13 31 13 23 0 -3 -6 1 -10 9 -10 9 0 16 -5 16 -12
0 -6 3 -8 6 -5 4 4 15 -3 25 -15 11 -11 19 -18 19 -14 0 3 11 -1 25 -10 14 -9
23 -20 20 -24 -3 -4 3 -14 13 -21 15 -13 16 -12 3 4 -12 15 -11 17 3 17 9 0
16 -4 16 -8 0 -4 15 -14 33 -21 91 -37 126 -48 131 -43 3 3 6 1 6 -5 0 -6 6
-10 13 -10 42 3 122 -26 113 -42 -3 -4 0 -13 5 -21 7 -12 8 -11 6 5 -1 11 -6
26 -10 33 -5 6 -4 12 2 12 5 0 12 -4 15 -8 3 -5 15 -8 28 -7 13 1 33 -2 46 -6
14 -5 22 -5 22 2 0 6 6 7 12 2 7 -4 26 -6 42 -4 20 2 26 -1 21 -9 -5 -9 -2 -9
11 -3 30 16 120 9 116 -8 -2 -11 1 -10 10 2 14 17 103 19 128 4 8 -5 11 -4 7
2 -8 12 94 10 114 -2 8 -5 10 -4 5 3 -4 7 -2 12 3 12 6 0 11 -4 11 -10 0 -6
10 -6 28 1 15 6 27 10 27 10 0 0 13 -4 28 -10 18 -7 26 -7 22 -1 -3 6 -1 10 4
10 6 0 11 -6 11 -12 0 -9 4 -8 10 2 9 13 10 13 11 0 1 -8 1 -18 0 -22 0 -5 4
-8 9 -8 6 0 10 8 8 17 -2 14 5 18 32 18 19 1 45 -2 58 -7 15 -5 21 -4 17 2 -3
6 -1 10 4 10 6 0 11 -5 11 -11 0 -8 4 -8 13 -2 14 11 109 9 128 -2 8 -5 10 -4
5 3 -4 7 -2 12 3 12 6 0 11 -6 11 -12 0 -9 4 -8 10 2 9 13 10 13 11 0 1 -8 1
-18 0 -23 0 -4 4 -7 9 -7 6 0 10 8 8 17 -2 14 5 18 32 18 19 1 45 -2 58 -7 15
-5 21 -4 17 2 -3 6 -1 10 4 10 6 0 11 -5 11 -11 0 -6 5 -7 13 -2 16 11 58 11
81 0 13 -6 16 -6 12 2 -4 6 -2 11 3 11 6 0 11 -5 11 -11 0 -6 5 -7 13 -2 16
10 47 11 75 1 15 -5 21 -4 17 2 -3 6 -1 10 4 10 6 0 11 -5 11 -11 0 -6 5 -7
13 -2 16 10 47 11 75 1 15 -5 21 -4 17 2 -3 6 -1 10 4 10 6 0 11 -5 11 -11 0
-5 5 -7 11 -3 15 9 99 11 99 2 0 -5 5 -8 11 -8 5 0 8 4 5 8 -3 5 11 8 29 8 19
-1 35 -4 35 -8 0 -5 5 -8 11 -8 5 0 7 6 3 12 -5 8 0 7 11 -2 11 -9 16 -10 11
-3 -4 7 -2 13 3 13 6 0 11 -5 11 -11 0 -6 5 -7 13 -2 16 10 47 11 75 1 15 -5
21 -4 17 2 -3 6 -1 10 4 10 6 0 11 -5 11 -11 0 -6 5 -7 13 -2 16 10 47 11 75
1 15 -5 21 -4 17 2 -3 6 -1 10 4 10 10 0 15 -14 12 -32 0 -5 4 -8 10 -8 6 0 8
9 3 22 -6 20 -5 21 10 9 9 -7 16 -9 16 -4 0 5 16 9 35 9 19 -1 35 -4 35 -8 0
-5 5 -8 11 -8 5 0 8 4 5 8 -7 12 148 9 156 -3 5 -6 8 -4 8 4 0 11 4 9 15 -5
13 -16 14 -17 9 -1 -7 19 15 21 28 2 5 -6 8 -5 8 2 0 7 10 12 23 12 12 -1 48
1 80 5 37 4 56 2 52 -4 -3 -6 1 -7 9 -4 9 3 14 9 11 13 -2 4 1 8 8 9 7 0 29 2
50 3 21 1 40 6 43 11 3 4 14 3 24 -2 16 -8 18 -7 14 4 -4 10 2 14 25 12 17 -1
27 2 24 8 -4 5 3 7 16 3 13 -3 20 -3 17 1 -10 9 85 51 103 45 14 -4 14 -3 1 6
-14 10 -7 16 14 12 4 -1 17 8 27 20 10 12 19 19 19 16 0 -6 35 20 66 51 8 7
14 11 14 8 0 -3 21 16 46 42 26 26 51 46 56 44 5 -1 6 3 2 9 -4 7 -1 17 7 23
8 6 28 32 45 58 25 38 34 45 45 35 11 -10 11 -9 1 4 -10 13 -10 23 -1 43 7 14
16 26 21 26 5 0 7 4 3 9 -3 5 -1 12 5 16 6 4 8 11 5 16 -4 5 -1 9 4 9 6 0 10
3 10 8 -4 21 2 42 10 38 5 -4 7 3 4 14 -3 12 0 20 6 20 7 0 10 4 6 10 -9 15 6
61 19 53 8 -4 8 -3 0 6 -14 15 -6 53 9 44 6 -4 7 -1 2 7 -10 16 -13 60 -5 60
5 0 6 5 10 113 2 41 7 67 14 67 7 0 7 3 1 8 -16 11 -18 44 -3 53 7 5 8 9 2 9
-12 0 -13 98 -1 117 4 6 4 14 0 16 -10 6 -10 1768 0 1783 3 6 4 14 0 18 -4 3
-8 50 -9 104 -4 118 -10 180 -24 252 -6 30 -13 68 -16 84 -10 58 -67 187 -113
259 -143 218 -367 356 -641 393 -101 13 -343 17 -1183 18 -526 0 -960 0 -965
-1z"/>
<path d="M693 825 c0 -8 4 -12 9 -9 5 3 6 10 3 15 -9 13 -12 11 -12 -6z"/>
<path d="M4336 718 c3 -5 10 -6 15 -3 13 9 11 12 -6 12 -8 0 -12 -4 -9 -9z"/>
<path d="M4153 585 c0 -8 4 -12 9 -9 5 3 6 10 3 15 -9 13 -12 11 -12 -6z"/>
<path d="M1010 580 c0 -5 5 -10 11 -10 5 0 7 5 4 10 -3 6 -8 10 -11 10 -2 0
-4 -4 -4 -10z"/>
<path d="M1110 540 c0 -5 5 -10 11 -10 5 0 7 5 4 10 -3 6 -8 10 -11 10 -2 0
-4 -4 -4 -10z"/>
<path d="M1186 502 c-3 -5 1 -9 9 -9 8 0 12 4 9 9 -3 4 -7 8 -9 8 -2 0 -6 -4
-9 -8z"/>
<path d="M1220 506 c0 -2 7 -6 15 -10 8 -3 15 -1 15 4 0 6 -7 10 -15 10 -8 0
-15 -2 -15 -4z"/>
<path d="M3839 493 c-13 -16 -12 -17 4 -4 16 13 21 21 13 21 -2 0 -10 -8 -17
-17z"/>
<path d="M1654 485 c1 -8 6 -18 11 -22 4 -4 5 -3 2 4 -4 6 -2 13 5 15 8 3 6 6
-4 10 -10 4 -15 2 -14 -7z"/>
<path d="M1774 475 c0 -13 4 -21 8 -19 5 3 6 9 3 14 -3 4 0 10 7 12 8 3 7 6
-3 10 -11 4 -15 -1 -15 -17z"/>
<path d="M2161 477 c-13 -21 -12 -21 5 -5 10 10 16 20 13 22 -3 3 -11 -5 -18
-17z"/>
<path d="M2481 477 c-13 -21 -12 -21 5 -5 10 10 16 20 13 22 -3 3 -11 -5 -18
-17z"/>
<path d="M2617 489 c7 -7 15 -10 18 -7 3 3 -2 9 -12 12 -14 6 -15 5 -6 -5z"/>
<path d="M2737 489 c7 -7 15 -10 18 -7 3 3 -2 9 -12 12 -14 6 -15 5 -6 -5z"/>
<path d="M3093 484 c0 -8 3 -12 5 -9 3 3 11 0 19 -7 11 -8 12 -7 7 5 -7 21
-31 29 -31 11z"/>
<path d="M3213 487 c0 -7 9 -13 19 -13 10 0 18 1 18 3 0 1 -8 7 -18 12 -13 7
-19 6 -19 -2z"/>
<path d="M1619 473 c-13 -16 -12 -17 4 -4 16 13 21 21 13 21 -2 0 -10 -8 -17
-17z"/>
<path d="M1913 475 c0 -8 4 -12 9 -9 5 3 6 10 3 15 -9 13 -12 11 -12 -6z"/>
<path d="M2190 480 c0 -5 5 -10 11 -10 5 0 7 5 4 10 -3 6 -8 10 -11 10 -2 0
-4 -4 -4 -10z"/>
<path d="M2510 480 c0 -5 5 -10 11 -10 5 0 7 5 4 10 -3 6 -8 10 -11 10 -2 0
-4 -4 -4 -10z"/>
<path d="M2873 473 c0 -9 4 -10 13 -2 7 6 19 7 25 3 7 -4 9 -3 5 4 -9 15 -43
11 -43 -5z"/>
<path d="M3359 473 c-12 -16 -12 -17 2 -6 9 7 19 10 22 6 4 -3 7 -1 7 5 0 17
-16 15 -31 -5z"/>
<path d="M3559 473 c-13 -16 -12 -17 4 -4 16 13 21 21 13 21 -2 0 -10 -8 -17
-17z"/>
<path d="M1496 462 c-3 -5 1 -9 9 -9 8 0 12 4 9 9 -3 4 -7 8 -9 8 -2 0 -6 -4
-9 -8z"/>
<path d="M2045 460 c-3 -6 1 -7 9 -4 18 7 21 14 7 14 -6 0 -13 -4 -16 -10z"/>
<path d="M2365 460 c-3 -6 1 -7 9 -4 18 7 21 14 7 14 -6 0 -13 -4 -16 -10z"/>
<path d="M3024 462 c4 -3 14 -7 22 -8 9 -1 13 0 10 4 -4 3 -14 7 -22 8 -9 1
-13 0 -10 -4z"/>
<path d="M3507 459 c7 -7 15 -10 18 -7 3 3 -2 9 -12 12 -14 6 -15 5 -6 -5z"/>
</g>
</svg>
