<svg width="800pt" height="400pt" viewBox="0 0 800 400" xmlns="http://www.w3.org/2000/svg"><path fill="#696969" opacity=".44" d="M431.06 47.13c3.07-1.47.1 3.28 0 0z"/><g fill="#f4f4f4"><path d="M429.83 59.3c.22-3.49 3.63-4.81 6.19-6.4 3.22-.7 6.61 3.24 4.81 6.23l-.72.36c-3.42.3-6.86.1-10.28-.19zM411.78 251.39c-.43-2.55 2.3-1.9 3.84-1.32-.05 3.77 1.79 7.41 5.4 8.87-4.06-.86-7.4-3.96-9.24-7.55zM323.83 339.74c2.1-1.74 5.12-.91 7.16.51.52-.6 1.16-1.02 1.92-1.24-3.53 1.21.37 3.83.23 6.06-3.65 1.75-7.69 1.51-11.61 1.42h-.63c.38-2.44.85-5.14 2.93-6.75z"/></g><g fill="#dbdbdb"><path d="M429.83 59.3c3.42.29 6.86.49 10.28.19l.24.44c-.26.61-.77 1.83-1.02 2.44-3.5 1.81-7.75.48-9.5-3.07zM553.53 92.84c.31-.31.92-.93 1.23-1.24l.76.37c-.01.41-.04 1.24-.05 1.66-.41 0-1.21.02-1.62.03l-.32-.82zM483.87 186.21c2.28-1.8 4.73-3.62 7.73-3.86-.3.37-.92 1.12-1.23 1.49-2.12.9-4.31 1.65-6.5 2.37zM499.43 192.4c.78-.58 1.58-1.15 2.39-1.7-.02.43-.08 1.31-.1 1.74-1.56 1.2-3.23 2.25-4.97 3.15.83-1.12 1.71-2.2 2.68-3.19zM475.9 205.7c1.85-1.04 3.69-2.1 5.59-3.06-.1.26-.3.8-.4 1.07-1.68.83-3.42 1.53-5.08 2.41l-.11-.42zM331.68 217.23c1.28.7 2.51 1.49 3.76 2.28 1.57 1.13 3.39 1.8 5.26 2.26-.13.65-.39 1.94-.51 2.59 1.48 1.45 3.02 2.84 4.66 4.12l.72.58c-2.26 3.61-3.47 8.47-8 9.91l-.08-.79c.13-.32.4-.96.53-1.28 1.99-1.94 3.63-4.18 4.69-6.76-2.69-1.11-5.38-2.23-8.06-3.35.25-.38.75-1.15 1-1.53l.7-1.33c-.01.54-.03 1.63-.03 2.17 1.54-.28 3.08-.57 4.62-.89-2.71-3.08-6.17-5.33-9.26-7.98zM372.21 225.22l2.51.12v2.24c-.54.13-1.63.37-2.17.5-.09-.72-.26-2.14-.34-2.86zM430.07 229.06l.69-.04-.01 1.92 1.16-.28.63-1.88c.39.22 1.17.68 1.56.9-.73 1.08-1.45 2.16-2.19 3.22-1.1-.46-2.19-.88-3.27-1.36l1.84-.72c-.1-.44-.31-1.32-.41-1.76zM435.43 230.11c1.24-.34 2.46-.69 3.69-1.03-1.02 1.01-2.11 2-2.85 3.26-.18.41-.55 1.21-.74 1.62-.04-1.29-.07-2.57-.1-3.85zM240.29 245.27c1.33.6 1.35 1.26.04 1.98-1.31-.65-1.32-1.31-.04-1.98zM334.61 265.98c.72.82 1.43 1.65 2.09 2.53-3.23.29-2.63 4.48-3.63 6.74-2.15 1.11-4.34 2.24-6.78 2.52a23.67 23.67 0 0 0-1.39 4.67l1.68.13c-.03.27-.09.83-.13 1.11-2.36-.83-2.24-3.55-3.33-5.42-3.33-.51-6.95-1.43-9.44 1.55-.44 1.86-.92 3.72-1.36 5.58-1.84 1.89-3.58 3.88-5.26 5.91-1.4-.2-3.6 1.18-4.13-.89-.67.79-1.08 2.79-2.43 1.78l1.15-.31c-.17-.7-.52-2.11-.7-2.82l-.38.79c-1.19-.97-2.4-1.88-3.67-2.73-1.63-3.01-1.84-6.48-2.9-9.68 2.11 1.85 3.3 4.43 5.04 6.58 1.77 1.75 4.48 2.72 6.93 2.03 5.1-2.08 4.37-9.53 9.64-11.42 4.33-1.17 9.12.34 13.28-1.71 2.99-1.18 4.23-4.37 5.72-6.94z"/></g><path fill="#616161" opacity=".41" d="M425.26 65.27c.54.59.54.59 0 0z"/><g fill="#eee"><path d="M151.94 66.16c18.83 14.75 37.1 30.2 55.61 45.35l-1.66.2c-18.02-15.14-36.17-30.14-53.95-45.55zM505.62 84.81c.8-1.56 1.58-1.6 2.35-.11-.75 1.47-1.54 1.51-2.35.11zM398.29 85.24c.29.28.88.85 1.18 1.13-.54 4.36-.19 8.82-1.16 13.11-.39-4.73-.41-9.51-.02-14.24zM478.12 105.8c1.66-.52 2.19.01 1.62 1.6-1.63.5-2.17-.03-1.62-1.6zM572.65 106.65c3.02-2.1 2.11 3.11-.34 1.96.08-.49.26-1.47.34-1.96zM404.42 114.47c3.34-.73 8.9 1.23 8.31 5.46-1.2 3.18-5.21.95-7.68 1.53-3.69-.11-3.89-5.91-.63-6.99zM457.45 117.95c1.6-.51 2.16.05 1.68 1.68-1.58.48-2.14-.08-1.68-1.68zM483.41 118.55c2.49-.82 6.91.23 6.92 3.5 1.53 4.05-4.38 6.51-7.05 3.93-2.11-1.8-3.01-6.18.13-7.43zM380.28 122.96c1.65-.5 2.22.05 1.71 1.64-1.64.48-2.21-.06-1.71-1.64zM526.09 125.61c-.93-1.22 1.26-3.65 2.46-2.35.77 1.34-1.19 3.04-2.46 2.35zM375.16 124.99c2.93-1.53.04 3.34 0 0zM359.46 146.21c1.62-.52 2.18.03 1.67 1.64-1.59.48-2.15-.06-1.67-1.64zM433.4 158.46c2-1.17 1.65 2.99.21 3.34-1.67-.07-1.06-2.6-.21-3.34zM427.32 169.92c1.56-.47 2.16.11 1.77 1.75-1.55.47-2.14-.11-1.77-1.75zM412.81 174.11c1.59-.52 2.18.01 1.75 1.59-1.66.49-2.24-.04-1.75-1.59zM411.01 185.22c1.38-.25 2 .31 1.85 1.68-1.37.21-1.99-.35-1.85-1.68zM406.25 216.92c-2.59-3.97 2.46-1.17 4.03-.42-.22 1.6-.31 3.27-1 4.77.02-.88.04-2.64.06-3.52-.96-.01-1.91-.02-2.85-.02.09 1.26.29 3.78.38 5.05-2.24-1.13-2.3-3.47-2.32-5.67l1.7-.19zM286.17 218.56c.06-.08.16-.24.21-.32 10.11 7.79 20.56 15.12 30.79 22.74.97 1.15 2.51.78 3.82.98-1.34 2.56 2.87 2.55 2.83 4.78-1.79-.93-3.24-2.38-4.52-3.92-.38-.14-1.15-.43-1.53-.57-9.45-6.87-18.82-13.85-28.22-20.78-1.07-.79-2.14-1.56-3.2-2.34l-.18-.57zM341.26 243.92c-.01-1.76 3.07-1.69 3.03.06-.21 1.66-3 1.7-3.03-.06zM346.15 259.35c-1.41-.89-1.38-1.66.1-2.32 1.51.81 1.48 1.58-.1 2.32zM258.11 259.97c1.68-.52 2.28.01 1.79 1.57-1.68.47-2.27-.05-1.79-1.57zM419.13 262.92c-1.42-.78-1.42-1.57-.02-2.38 1.53.81 1.54 1.6.02 2.38zM220.1 271.89c-1.38-.7-1.41-1.5-.07-2.41 1.55.72 1.58 1.52.07 2.41zM330.2 280.29c1.31.25 1.49.98.55 2.17-1.29-.27-1.47-1-.55-2.17zM382.54 281.34c1.63-.5 2.13.06 1.5 1.68-1.61.49-2.11-.07-1.5-1.68zM337.55 283.95c1.35-.5 1.86-.04 1.52 1.36-1.35.49-1.86.03-1.52-1.36zM391.43 289.92c1.63-.42 2.19.16 1.66 1.75-1.63.39-2.18-.19-1.66-1.75zM381.96 293.28c1.66-.52 2.21-.01 1.63 1.51-1.69.57-2.23.07-1.63-1.51zM279.63 297.81c-.88-.43-2.74-1.6-1.56-2.63 1.62-1 2.22 1.56 1.56 2.63zM370.25 296.46c1.53-.44 2.03.14 1.49 1.76-1.6.46-2.09-.13-1.49-1.76zM383.96 299.36c2.08-.96 2.5 2.61 1.18 3.34-.99-.6-2.38-2.3-1.18-3.34zM254.46 300.24c.97-1.42 3.43.45 2.45 1.79-1.11 1.37-3.41-.34-2.45-1.79zM238.75 301.67c2.03.74 3.25 2.58 4.41 4.28-1.7-1.12-4.34-1.81-4.41-4.28zM271.12 308.48c1.67-.54 2.26-.05 1.78 1.49-1.7.57-2.29.07-1.78-1.49zM274.54 307.97c3-1.39-.01 3.32 0 0zM267.51 312.07c2.75-1.7.37 3.32 0 0zM263.99 316.9c1.59-.46 2.15.12 1.68 1.74-1.62.41-2.18-.17-1.68-1.74zM348.44 320.07c-.27-.53-.8-1.59-1.07-2.12 1.2 1.29 1.88 4.66 4.25 3.57l.04 2.11c-1.65-.68-5.91-1.35-3.22-3.56zM237.61 324.72c.72-1.33 1.4-1.35 2.04-.07-.68 1.25-1.37 1.27-2.04.07zM367.07 323.65c.13.26.4.79.54 1.06-.43.24-1.27.74-1.7.99-.53 1.5-1.05 3.01-1.57 4.53-.11-1.36-.21-2.71-.32-4.06 1.31-.44 2.33-1.28 3.05-2.52zM262.5 325.28c1.67-.47 2.2.07 1.59 1.64-1.63.46-2.16-.08-1.59-1.64zM341.21 332.26c1.3.68 1.28 1.35-.06 2.02-1.21-.75-1.19-1.42.06-2.02zM362.04 332.34c1.62-.51 2.11.02 1.49 1.61-1.65.55-2.15.01-1.49-1.61zM359.31 335.32c-1.78 1.43-3.44-1.78-1.39-2.6 1.32-.28 2.15 1.65 1.39 2.6zM356.58 355.99c2.96-1.41.06 3.33 0 0zM249.46 364.4c.4.01 1.21.01 1.61.01l.34.81c-.31.3-.94.91-1.25 1.22l-.76-.38c.01-.41.04-1.24.06-1.66zM308.3 366.43c1.61-.54 2.18-.01 1.7 1.58-1.6.57-2.17.04-1.7-1.58zM353.14 381.5c1.37-.43 1.82.04 1.34 1.4-1.42.43-1.86-.03-1.34-1.4zM345.02 388.77c-.94-.9.43-2.87 1.56-2.34.7.95-.26 3-1.56 2.34zM358.83 400c-1.02-1-1.32-3.04.14-3.79.38 1.22.52 2.49.42 3.79h-.56zM183.55 396.9c1.6-.58 2.11-.04 1.52 1.63-1.58.53-2.08-.01-1.52-1.63z"/></g><g fill="#505050"><path opacity=".34" d="M403.23 69.18c.55.56.55.56 0 0zM369.16 288.37c3.24.18-1.58 3.06 0 0zM396.37 339.24c.53.56.53.56 0 0z"/></g><path fill="#c8c8c8" opacity=".83" d="M392.18 75.2c.68.66.68.66 0 0z"/><g fill="#ebe9e9"><path d="M399.22 78.22c.36 0 1.06.02 1.42.03-.29 1.29-.56 2.59-.88 3.87-.2-1.3-.38-2.6-.54-3.9zM450.52 115.75c.03-2.8 1.01-5.57 3.65-6.92-.11 1.6-.57 3.16-2.01 4.02-.56.97-1.09 1.94-1.64 2.9zM333.87 233.01c-.97-2.09-1.29-4.66.78-6.22 2.68 1.12 5.37 2.24 8.06 3.35-1.06 2.58-2.7 4.82-4.69 6.76-.13.32-.4.96-.53 1.28-1.64 3.08-6.89 5.44-4.69 9.65-.99.76-1.98 1.52-2.96 2.29-1.62-1.15-3.3-2.21-4.97-3.29-.7-2.29 1.95-3.37 3.3-4.64 3.36-2.09 2.87-6.6 5.7-9.18zM345.75 228.04l1.44-.74c.69.48 1.37.97 2.04 1.49 1.7 1.37 3.39 2.76 5.1 4.14 2.27 1.91 4.68 3.65 6.91 5.62l-.2 1.78c1.37.01 2.8-.03 3.91.93l.5-1.13c-.11.53-.35 1.59-.46 2.12.56.07 1.69.22 2.25.29l-2.24.04c.03.65.07 1.93.1 2.58-1.84-1.62-4.12-2.9-5.59-4.81l.51-1.64c-.49.14-1.46.42-1.95.57-4.18-3.25-8.32-6.61-12.18-10.22l-.14-1.02zM280.12 249.14c.54-.92 1.27-1.07 2.18-.45.03.43.08 1.29.11 1.72-.85.99-2.69-.02-2.29-1.27zM234.2 251.76l.72.15.73.61c.02.5.07 1.51.09 2.02h-2.14v-2.25l.6-.53zM280.6 292.22c.95-1.56 3.63.2 2.4 1.66-1.05 1.34-3.34-.25-2.4-1.66z"/></g><path fill="#252525" opacity=".15" d="M470.22 83.09c1.24.65 1.18 1.33-.19 2.04-1.24-.65-1.18-1.33.19-2.04z"/><g fill="#f3f3f3"><path d="M570.72 87.74c1.81-2.08 4.1-5.22 7.28-3.92l.56 1.28c-1.46 2.47-3.16 4.92-5.47 6.66-4.95 2.63-8.85 6.94-11.62 11.76-1.51 2.41-2.83 4.99-4.88 6.98-2.09 1.86-5.02 1.92-7.64 2.06.4-2.27.03-4.99 2.04-6.62 2.32-2.17 2.96-5.6 5.54-7.53 4.62-3.69 9.87-6.6 14.19-10.67zM217.09 279.12c-2.58-1.21-.63-5.1 1.85-4.72 1.85-.55 2.53 1.3 3.39 2.5-1.18 1.62-3.12 3.81-5.24 2.22z"/></g><g fill="#6c6c6c"><path opacity=".45" d="M421.24 91.27c.58.57.58.57 0 0zM404.22 261.27c.57.57.57.57 0 0zM294.22 353.12c.56.57.56.57 0 0zM331.19 374.22c.59.56.59.56 0 0z"/></g><path fill="#606060" opacity=".4" d="M381.06 92.08c3.26.33-1.64 2.98 0 0z"/><path fill="#d7d7d7" d="M561.47 103.52c2.77-4.82 6.67-9.13 11.62-11.76-2.64 4.75-7.77 7.52-9.75 12.66-2.85 3.54-3.64 8.72-8.1 10.81-2.48 1.65-5.42-.13-6.29-2.67 2.62-.14 5.55-.2 7.64-2.06 2.05-1.99 3.37-4.57 4.88-6.98z"/><g fill="#404040"><path opacity=".27" d="M378.45 94.09c2.99-1.59.24 3.28 0 0zM245.25 396.19c.48.59.48.59 0 0z"/></g><g fill="#f0f0f0"><path d="M420.95 93.28c2.86.47 1.44 3.75 1.6 5.64-.78 4.02-.4 8.3-1.89 12.16-.19-5.93-.18-11.88.29-17.8zM510.91 105.67c.03-2.3.35-7.42 3.87-5.48-.72 2.18-2.04 4.1-3.87 5.48zM448.04 108.82c-1.64-1.13-1.13-4.06.93-4.17 1.95-.98 2.88 1.15 3.86 2.37-1 1.98-2.7 2.85-4.87 2.29.44.43 1.32 1.27 1.76 1.69-.4 1.19-.8 2.38-1.19 3.56-2.11 1.09-6.12 1.48-6.49-1.59-.87-3.31 3.2-6.28 6-4.15zM358.12 107.82c3.19-1.57 6.65 1.26 9.92 1.7 2.46 1.86 5.29-3.61 6.59.62-2.07 2.72-5.81 3.48-8.63 5.25-4.07 1.82-11.64-3.28-7.88-7.57zM520.82 118c.94-.6 1.87-2.11 3.06-.89.77 2.39-2.22 2.87-3.06.89zM432.6 118.78c-.54-1.58 1.89-2.49 2.77-1.25-.01.48-.04 1.42-.05 1.89-1.13.72-2.04.5-2.72-.64zM573.32 119.19c2.75-.63 1.5 3.32-.63 2.9-1.89-.24-.59-2.68.63-2.9zM476.19 120.38c1.42-1.19 3.26 1.22 1.7 2.26-1.4 1.09-3.2-1.24-1.7-2.26zM457.51 122.73c.93-.28 1.77-.09 2.45.7l-1.91.62c.82.57 1.65 1.13 2.48 1.7-.41.28-1.24.83-1.65 1.11-.46-1.38-.9-2.76-1.37-4.13zM463.37 132.81c-1.34-1.38.67-3.57 2.08-2.17 1.35 1.25-.83 3.9-2.08 2.17zM514.44 138.7c.26-3.26 4.33-.03 1.26.93l-1.26-.93zM561.06 137.6c2.63.24 1.73 4.6-.61 4.22.14-1.42.32-2.83.61-4.22zM425.57 151.39c.92-1.26 1.11-4.06 3.28-3.12.86 1.82-.35 3.9-2.13 4.54l-.96 1.36c-.05-.7-.14-2.08-.19-2.78zM340.91 154.85c3.05-.07 1.52 2.75.97 4.41-1.91-.74-1.18-2.93-.97-4.41zM418.72 181.91c1.95-.17 2.69 1.44 3.25 2.96 1.88 1.46 4.1.76 6.21.43-2.08.99-5.81.77-5.38 4.03-1.71-1.54-3.88-.41-5.81-1.14 1.53-1.09 3.07-2.16 4.63-3.2-1.02-.99-2.04-1.95-2.9-3.08zM427.95 229.2c-1.28-.13-2.01-2.9-.31-2.83 1.48.06 2.09 2.74.31 2.83zM422.77 239.9c-1.87.46-2.3-2.61-.83-3.3 1.74-.32 2.64 2.8.83 3.3zM308.65 242.62c.47-1.15 2.71.29 2.01 1.26-.13 2.01-3.86.04-2.01-1.26zM379.26 257.03c.96-2.31 3.4-3.34 5.29-4.75 3.07 3.38-2.79 6.22-4.34 8.9.89.59 1.79 1.17 2.7 1.75.06 1.36.37 2.73.26 4.1-.64.97-1.84 1.23-2.83 1.67 0-1.24.85-2.15 1.45-3.14.49-1.43-1.52-1.86-2.18-2.75-.44.51-1.34 1.52-1.79 2.02-1.48 2.88-4.55 4.54-5.69 7.62-1.73 2.03-4.02 3.51-5.79 5.52-2.81-1.92-5.6-3.89-8.25-6.03l-.51-1.25c2.94 1.86 5.7 4 8.53 6.03 1.65-2.26 3.27-4.55 4.51-7.07 3.05-.28 4.9-2.45 6.53-4.8-1.2-.57-2.03-1.5-2.49-2.78 1.75-1.46 3.71-2.84 4.6-5.04zM363.82 256.91c2.31.2 2.29-3.85 4.7-2.45 1.28.99.13 2.12-.58 3-.48-.23-1.44-.68-1.91-.91-.52 1.32-1.44.51-2.21.36zM323.2 288.74c.27-1.07.44-2.35 1.81-2.41 1.24.21 1.42 1.43 1.76 2.43-1.18.52-2.4.52-3.57-.02zM409.89 286.02c1.55-.49 2.08.08 1.6 1.72-1.59.52-2.12-.05-1.6-1.72zM421.27 288.33c1.75-.17 1.61 2.7-.09 2.46-1.72.04-1.61-2.62.09-2.46zM254.6 298.49c-1.36-1.24.75-3.2 1.98-1.88 1.66 1.22-.77 3.03-1.98 1.88zM383.34 305.53c1.53-1.36 3.44 1.53 1.69 2.34-1.31 1.55-3.72-1.53-1.69-2.34zM253.12 307.08c2.56 0 3.27 3.07 4.21 4.92-1.54-1.29-5.3-2.54-4.21-4.92zM363.4 313.49c1.78-.94 2.99 2.77.57 2.63-1.61.17-1.85-2.08-.57-2.63zM373.19 314.74c1.39.5 2.67 1.26 3.95 2-1.37.31-2.75.58-4.11.92-.88-.8-1.56-2.63.16-2.92zM413.19 324.83c1.86.42 3.77 3.67 1.2 4.5-2.01-.07-1.65-3.14-1.2-4.5zM334.55 331.41c1.35-1.38 2.54.52 3.33 1.47-.99 1.1-1.79 2.33-1.86 3.86-.18-1.94-3.47-3.58-1.47-5.33zM340.36 335.52c2.41-2.53 6.35 2.2 3.46 4.11-2.61 2.24-6.37-2.12-3.46-4.11zM288.61 356.02c-.12-1.49 2.78-2.94 3.22-1.04.47 1.84-2.58 2.8-3.22 1.04zM380.52 357.03c.93-1.29 3.33.21 2.19 1.55-.95 1.15-3.15-.25-2.19-1.55zM220.39 367.63c2.21.1 1.5 3.25-.5 3.24-2.38.07-.97-3.07.5-3.24z"/></g><path fill="#ea5239" d="M587.72 107c3.31-8.48 13.75-12.07 22.13-9.83-1.96.81-4.04 1.23-6.15 1.27-7.71-.42-15.41 6.64-14.24 14.58-.05 1.59 1.08 2.79 1.96 3.98.12.16.36.46.48.62 5.28 9.89 22.19 9.12 26.61-1.22 2.21-3.03.71-7.11 2.7-10.26.24 4.64 1.37 10.2-2.2 13.93-7.19 9.32-23.44 8.49-29.65-1.5-2.43-3.37-2.02-7.68-1.64-11.57z"/><path fill="#e13e24" d="M609.85 97.17c4.56 1.28 9.27 3.83 11.32 8.32l.04.65c-1.99 3.15-.49 7.23-2.7 10.26.5-2.6.54-5.31-.33-7.84-1.23-3.68-4.51-6.21-7.96-7.7-2.11-.95-4.29-1.79-6.52-2.42 2.11-.04 4.19-.46 6.15-1.27z"/><g fill="#ac2915"><path d="M589.46 113.02c-1.17-7.94 6.53-15 14.24-14.58 2.23.63 4.41 1.47 6.52 2.42-6.46-2.24-14.78-.1-18.16 6.16-1.71 3.08-1.15 6.67-.64 9.98-.88-1.19-2.01-2.39-1.96-3.98zM668.89 102.57c3.13-.22 6.38-.35 9.31 1-3.85-.24-7.96.16-11.12 2.57-3.82 2.59-5 7.53-4.98 11.9.03 7.4 0 14.8.15 22.2-5.09-.01-11.57-.47-14.84 4.32-1.86 2.09-1.29 5.05-1.24 7.59-1.71-2.09-1.61-4.83-1.39-7.35 3.01-5.89 10.17-6.86 16.1-6.47-.31-7.9-.58-15.84-.1-23.74.33-5.2 3.61-9.59 8.11-12.02zM231.5 130.36c.59-.05 1.77-.16 2.36-.21-4.57 7.49-9.93 14.45-15.23 21.43-10.77 14.21-21.82 28.21-32.45 42.53-2.24 3.03-4.52 6.09-5.96 9.59-.48 2.58-.24 5.22.46 7.72-3.78-4.52-1.8-11.11 1.6-15.25 12.89-17.38 26.36-34.32 39.39-51.58 3.31-4.72 7.14-9.1 9.83-14.23z"/><path d="M640.49 156.57c.01-2.88.73-5.7 1.19-8.53.17 3.69 1.2 7.66 4.15 10.12 3.61 2.99 8.46 3.49 12.92 4.2.09 16.9.22 33.8.7 50.69.39 8.37.9 17.11 4.75 24.72 3.17 6.55 9.87 10.43 16.49 12.75 4.92 1.8 10.19.88 15.3.93 4.03.05 8.07.12 12.1-.3-.53-.42-1.59-1.26-2.11-1.67 4.41-.28 8.89-.86 12.91-2.84 3.52-1.25 6.74-3.5 8.26-7.04l.52 2.69c4.55-3.03 2.51-9 1.69-13.39 1.39 2.08 2.59 4.42 2.54 6.99.59 4.73-2.29 8.73-4.28 12.73-10.2 6.71-22.54 9.53-34.66 9.13-8.73.3-18.2-.81-25.2-6.52-4.43-3.36-5.24-9.23-7.09-14.11-1.83-8.56-3.07-17.32-2.55-26.1-.4-14.5-.26-29.01-.67-43.51-3.53-.02-7.38.63-10.53-1.35-3.59-1.95-4.98-6.05-6.43-9.59z"/></g><g fill="#303030"><path opacity=".2" d="M469.29 99.23c.5.56.5.56 0 0zM327.21 299.24c.51.54.51.54 0 0z"/></g><g fill="#393939"><path opacity=".24" d="M415.21 100.2c.52.55.52.55 0 0zM566.27 110.25c.52.54.52.54 0 0zM327.2 292.17c.54.53.54.53 0 0zM345.29 367.29c.53.53.53.53 0 0zM196.27 389.19c.5.56.5.56 0 0z"/></g><g fill="#fff"><path d="M592.06 107.02c3.38-6.26 11.7-8.4 18.16-6.16 3.45 1.49 6.73 4.02 7.96 7.7-.09 3.7-.14 7.91-3.02 10.66-3.98 3.75-10.22 5.64-15.43 3.5-2.96-1.09-5.38-3.19-7.83-5.1-.12-.16-.36-.46-.48-.62-.51-3.31-1.07-6.9.64-9.98zM494.11 131.74c1.49-1.23 2.51-1.05 3.04.53-1.08.14-2.09-.04-3.04-.53z"/></g><path fill="#e44127" d="M668.32 101.25c4.76-2.04 10.34-1.53 15.05.43.76.4 1.54.79 2.34 1.17 2.44 1.85 5.09 3.74 6.27 6.7-.1.5-.29 1.52-.39 2.02-1.03 3.75.09 7.57.2 11.36.21 5.43-.07 10.87.4 16.29-.34.44-1.04 1.32-1.39 1.76-.81-9.08-.12-18.3-1.67-27.31-.93-5.43-6.09-8.54-10.93-10.1-2.93-1.35-6.18-1.22-9.31-1l-.57-1.32z"/><g fill="#333"><path opacity=".22" d="M501.14 102.22c1.3.65 1.27 1.31-.09 1.98-1.31-.65-1.28-1.31.09-1.98zM257.24 329.29c.52.54.52.54 0 0zM250.1 383.43c3.27.17-1.54 3.02 0 0zM309.33 394.24c.49.56.49.56 0 0z"/></g><path fill="#e54b33" opacity=".95" d="M658.75 111.84c1.1-4.83 4.99-8.82 9.57-10.59l.57 1.32c-4.5 2.43-7.78 6.82-8.11 12.02-.48 7.9-.21 15.84.1 23.74-5.93-.39-13.09.58-16.1 6.47-.56 2.01-.93 4.07-1.29 6.12-.31-1.54-.66-3.08-.97-4.62l-.28-1.52c2.57-4.94 7.89-8.01 13.42-8.01.73-.02 2.19-.07 2.92-.09-.07-8.28-.37-16.57.17-24.84z"/><path fill="#242424" opacity=".15" d="M390.05 104.45c3.29-.02-1.38 3.09 0 0z"/><path fill="#f9ffff" d="M667.08 106.14c3.16-2.41 7.27-2.81 11.12-2.57 4.84 1.56 10 4.67 10.93 10.1-.7 5.09-.35 10.21-.41 15.31.1 2.85-2.79 4.39-4.44 6.32-7.05 7.41-15.1 13.84-23.72 19.32-3.75 2.56-8.4.66-12.49.22-.68-.87-1.33-1.76-1.9-2.69-.05-2.54-.62-5.5 1.24-7.59 3.27-4.79 9.75-4.33 14.84-4.32-.15-7.4-.12-14.8-.15-22.2-.02-4.37 1.16-9.31 4.98-11.9z"/><path fill="#949494" opacity=".62" d="M383.03 105.36c3.21.22-1.43 3.13 0 0z"/><path fill="#656565" opacity=".42" d="M426.09 105.07c3.25.26-1.58 3.03 0 0z"/><path fill="#ab2814" d="M621.17 105.49c2.38 4.31 1.8 9.41.99 14.05-2.79 5.94-7.44 10.53-12.64 14.39-6.25-1.37-12.85-.09-17.99 3.73-1.51-1.84-3.02-3.68-4.12-5.79-1.72-4.43-.9-9.23-.9-13.85.04-3.68-.4-7.57 1.21-11.02-.38 3.89-.79 8.2 1.64 11.57 6.21 9.99 22.46 10.82 29.65 1.5 3.57-3.73 2.44-9.29 2.2-13.93l-.04-.65z"/><path fill="#d93e25" d="M207.55 111.51c13.47-1.35 26.91-2.79 40.36-4.3 4.18-.35 8.39-.26 12.57.13 3.97 1.31 8.26 3.03 10.17 7.06l-.38.82c-1.85 2.74-1.19 6.24-2.66 9.13.39-3.62.48-7.76-2.27-10.54-3.54-3.21-8.68-3.37-13.19-3.18-8.27.45-16.47 1.68-24.7 2.5-14.41 1.55-28.82 3.02-43.21 4.67-1.41-.18-2.8-.45-4.19-.72-.27-.41-.79-1.23-1.05-1.63l-.12-.2c8.83-2.2 18.03-2.23 27.01-3.54l1.66-.2z"/><g fill="#3c3c3c"><path opacity=".25" d="M351.33 109.26c.53.54.53.54 0 0zM332.27 291.21c.51.56.51.56 0 0z"/></g><g fill="#efefef"><path d="M506.94 109.74c2.97-.6 2.17 3.27-.03 3.81-.19-1.27-.12-2.55.03-3.81zM495.59 112.26c-1.06-1.42.96-3.68 2.3-2.1 1.52 1.4-1.09 3.43-2.3 2.1zM580.27 115.53c-.27-1.31 1.3-3.12 2.66-2.66.49 1.28-1.42 3.12-2.66 2.66zM512.14 131.03c.12-1.29-.8-4.36 1.5-3.71 1.01 1.42.56 3.83-1.5 3.71zM443.33 140.06c.61-2.14-.5-6.38 2.35-6.84-.48 2.37-1.33 4.65-2.35 6.84zM337.41 152.28c.99-1.55 3.27.32 2.28 1.7-1.04 1.5-3.5-.26-2.28-1.7zM257.93 154.84c.07-.11.2-.32.26-.43.66.46 1.97 1.39 2.62 1.85 1.5 1.05 2.97 2.13 4.45 3.21 18.63 15.08 36.93 30.56 55.44 45.77 2.67 2.35 5.68 4.32 8.03 7.01.12.2.35.61.47.82.79 1.4 1.64 2.77 2.48 4.16-.77-.61-1.53-1.22-2.29-1.82-21.18-17.59-42.24-35.33-63.29-53.07-.72-.65-1.43-1.32-2.12-2.01-.96-.99-1.87-2.02-2.79-3.03l-.5-.54-2.76-1.92zM414.3 185.4c1.16-.23 2.93 1.51 2.35 2.73-1.51.97-2.74-1.5-2.35-2.73zM394.48 264.1c2.25.19 4.49-.36 6.38-1.59 2.43 1.67 3.18 4.4 3.62 7.17-1.54 1.37-3.12 2.7-4.37 4.34.23-.52.7-1.56.93-2.08l-2.9-.2c-.06 2.86-2.9 6.44-5.65 3.57-.38.11-1.16.33-1.54.44 1.65-.62.99-2.4 1.18-3.76.64-1.68 2.21-3.33 4.16-2.43-.42-1.88-1.03-3.71-1.81-5.46zM407.86 273.5c-.41-1.37.49-3.2 2.11-2.76.47.4 1.42 1.19 1.89 1.59l-1.16.18c.32.82.64 1.65.98 2.47.18-2.47 5.15-1.43 2.96.63-2.61 2.1-4.82-.62-6.78-2.11zM411.91 279.99c1.4-.47 1.87-.01 1.41 1.37-1.43.44-1.9-.01-1.41-1.37zM332.14 281.48c1.29.19 1.54.91.73 2.16-1.32-.19-1.56-.91-.73-2.16zM374.86 287.73c.16-.98.54-1.82 1.16-2.53 1.8-1.3 2.14 1.46 1.97 2.63-.78-.03-2.34-.08-3.13-.1zM422.99 290.48c1.16-.89 3.14 1.04 1.72 2.01-1.24 1.04-3.05-.96-1.72-2.01zM269.73 294.66c-2.02.74-2.91-2.5-.79-2.9 1.67-.4 2.62 2.56.79 2.9zM205.9 294.58c1.39-.43 1.87.04 1.42 1.41-1.42.44-1.89-.03-1.42-1.41zM257.86 295.32c1.39-.77 2.52 1.42 1.69 2.45-1.31.74-2.91-1.46-1.69-2.45zM177.81 302.71c1.19-2.08 3.68-.68 4.94.43.85 1.85-2.4 1.33-3.18 1.05l1.6-1.83c-.84.09-2.52.26-3.36.35zM294.42 304.19c1.61-.61 2.18-.1 1.73 1.54-1.59.56-2.17.05-1.73-1.54zM230.05 305.05c2.82-1.59.15 3.36 0 0zM257.04 304.85c1.66-.51 2.24.02 1.73 1.6-1.64.49-2.22-.04-1.73-1.6zM357.32 317.32c1.71-.52 3.12 3.13.81 3.24-1.47-.2-1.33-2.27-.81-3.24zM243.37 323.39c3.4-1.6 1.58 4.46-.46 1.41.11-.36.35-1.06.46-1.41zM343.14 331.81c1.65-.51 2.2.04 1.64 1.64-1.62.47-2.16-.08-1.64-1.64zM261.72 340.07c.86-1.33 1.69-1.26 2.47.22-.87 1.4-1.69 1.33-2.47-.22zM418.25 352.78c.85-.97 1.85-2.5 3.21-1.26 1.05 2.03-2.12 2.54-3.21 1.26zM270.24 355.9c1.43-.45 1.83.03 1.23 1.43-1.42.42-1.83-.06-1.23-1.43zM282.12 364.63c3.28.13-1.52 2.95 0 0zM337.51 378.28c1.54-.62 2.1-.09 1.68 1.59-1.53.61-2.09.07-1.68-1.59zM252.82 395.14c-.47-1.39 1.67-2.96 2.94-2.57.66 1.48-1.53 3.43-2.94 2.57z"/></g><path fill="#c7bdba" d="M618.18 108.56c.87 2.53.83 5.24.33 7.84-4.42 10.34-21.33 11.11-26.61 1.22 2.45 1.91 4.87 4.01 7.83 5.1 5.21 2.14 11.45.25 15.43-3.5 2.88-2.75 2.93-6.96 3.02-10.66z"/><path fill="#edf7f7" d="M227.45 113.13c8.23-.82 16.43-2.05 24.7-2.5 4.51-.19 9.65-.03 13.19 3.18 2.75 2.78 2.66 6.92 2.27 10.54-1.87 4-4.74 7.4-7.37 10.91-12.94 17.3-25.71 34.73-38.67 52.02-2.33-.53-4.17 1.13-6.04 2.2-10.17 6.1-21.44 10.02-32.8 13.25-.44 1.41-.89 2.82-1.32 4.24-.3-.82-.9-2.45-1.19-3.27 1.44-3.5 3.72-6.56 5.96-9.59 10.63-14.32 21.68-28.32 32.45-42.53 5.3-6.98 10.66-13.94 15.23-21.43-.59.05-1.77.16-2.36.21-3.19.17-6.36.45-9.53.86-3.92-.02-8.93 1.77-11.93-1.56 6.29-4.96 12.13-10.5 17.41-16.53z"/><path fill="#de3e26" d="M691.98 109.55c1.41 3 1.95 6.31 2.2 9.59.17 6.03.55 12.06.5 18.09 8.15-.34 18.56.03 22.7 8.45.01.7.05 2.09.06 2.79-1.28 1.57-2.52 3.19-3.51 4.96.79-3.84-.47-8.26-4.02-10.28-5.81-3.28-12.76-1.89-19.11-2.17.35-.44 1.05-1.32 1.39-1.76 1.35-3.22.68-6.81.83-10.2.15-5.86-.69-11.66-1.43-17.45.1-.5.29-1.52.39-2.02z"/><path fill="#ae2814" d="M655.66 136.77c-.79-8.44 1.67-16.69 3.09-24.93-.54 8.27-.24 16.56-.17 24.84-.73.02-2.19.07-2.92.09z"/><path fill="#fa553b" d="M691.79 122.93c-.11-3.79-1.23-7.61-.2-11.36.74 5.79 1.58 11.59 1.43 17.45-.15 3.39.52 6.98-.83 10.2-.47-5.42-.19-10.86-.4-16.29z"/><path fill="#fdffff" d="M184.24 117.8c14.39-1.65 28.8-3.12 43.21-4.67a130.844 130.844 0 0 1-17.41 16.53c3 3.33 8.01 1.54 11.93 1.56-8.68.93-17.36 1.79-26.04 2.75-5.38.72-10.87 1.15-16.27.46-3.27-.23-4.43-3.62-5.39-6.21-.44-5.74 4.57-9.98 9.97-10.42z"/><path fill="#f0fafa" d="M689.13 113.67c1.55 9.01.86 18.23 1.67 27.31 6.35.28 13.3-1.11 19.11 2.17 3.55 2.02 4.81 6.44 4.02 10.28-.15.31-.44.93-.59 1.25-1.3 1.55-2.88 2.99-4.9 3.46-5.66 1.33-11.52 1.55-17.3 1.19.01.56.05 1.69.06 2.25-.97 8.64-.85 17.39-1.61 26.05-2.92 4.16-7.82 6.27-11.84 9.19-3.68 2.68-7.8 4.72-11.39 7.5-.65 7.53-.38 15.15.85 22.62.55 1.39-.61 2.16-1.59 2.88-.36-1.4-.7-2.81-1.06-4.2-2.2-22.23-1.05-44.63-1.88-66.93-2.68.04-5.36.05-8.02-.2-2.47-.64-4.74-1.9-6.59-3.65 4.09.44 8.74 2.34 12.49-.22 8.62-5.48 16.67-11.91 23.72-19.32 1.65-1.93 4.54-3.47 4.44-6.32.06-5.1-.29-10.22.41-15.31z"/><path fill="#9a2715" d="M270.65 114.4c2.76 5.09 1.29 10.85-.1 16.1-.31 1-.57 2.02-.94 3-2.11 2.33-4.06 4.81-5.76 7.46-11.63 15.98-23.79 31.61-34.96 47.92.64.13 1.91.41 2.55.54l.94.44c-2.33.07-4.65.28-6.97.42l-1.28-.28c.6-1.44 1.2-2.88 1.86-4.28 11.76-16.14 23.94-31.97 35.68-48.12 2.85-3.87 6.09-7.54 8.13-11.93 1.54-3.29.73-7 .47-10.45l.38-.82z"/><path fill="#dd3f26" d="M170.76 123.91c1.24-3.89 4.33-7.19 8.24-8.46.26.4.78 1.22 1.05 1.63-4.34 1.61-8.24 6.47-5.78 11.14.96 2.59 2.12 5.98 5.39 6.21 5.4.69 10.89.26 16.27-.46 8.68-.96 17.36-1.82 26.04-2.75 3.17-.41 6.34-.69 9.53-.86-2.69 5.13-6.52 9.51-9.83 14.23-13.03 17.26-26.5 34.2-39.39 51.58-3.4 4.14-5.38 10.73-1.6 15.25 3.31 6.2 10.91 7.54 17.29 6.54 26.07-2.66 52.13-5.47 78.18-8.33 3.68-.38 7.7-1.2 10.25-4.1 2.53-3.62 2.48-9.01-.46-12.4-1.47-1.85-3.65-2.88-5.7-3.92.51-.28 1.52-.84 2.02-1.12 3.19 1.45 6.7 3.36 7.78 6.96 1.41 3.22.71 6.79.08 10.1-3.63 5.19-10.13 6.95-16.1 7.59-23.99 2.73-47.97 5.55-71.96 8.3-5.96.59-12.33 1.46-17.94-1.21-3.86-1.79-6.3-5.49-8.09-9.19-1-4.09-.35-8.91 2.23-12.35 6.88-10.16 14.61-19.71 22.04-29.48 1.42-1.79 2.82-3.6 4.19-5.43.69-.9 1.38-1.79 2.07-2.68 1.57-1.96 3.1-3.95 4.62-5.95 1.8-2.21 3.53-4.47 5.3-6.71 1.69-2.15 3.32-4.34 4.95-6.53 1.85-2.44 3.64-4.93 5.33-7.48-13.63.86-27.14 3.1-40.74 4.33-3.83.1-7.87-.22-11.31-2.07-3.94-2.78-3.93-8.06-3.95-12.38m19.1 95.76c3.07.38 6.24.63 9.27-.22-3.03-.18-6.52-1.56-9.27.22z"/><g fill="#df4026"><path d="M267.61 124.35c1.47-2.89.81-6.39 2.66-9.13.26 3.45 1.07 7.16-.47 10.45-2.04 4.39-5.28 8.06-8.13 11.93-11.74 16.15-23.92 31.98-35.68 48.12-1.91 2.11-3.28 4.99-5.84 6.35l-1.11-1.13c.84-1.23 1.68-2.45 2.53-3.66 12.96-17.29 25.73-34.72 38.67-52.02 2.63-3.51 5.5-6.91 7.37-10.91zM591.53 137.66c5.14-3.82 11.74-5.1 17.99-3.73 2.62.8 5.08 2.1 7.21 3.84 4.14 3.44 6 9 5.96 14.26-.05 23.67-.02 47.33-.03 71-.03 5.62.25 11.3-.94 16.83-.36.28-1.09.85-1.45 1.14-4.5 4.01-8.99 8.6-15.18 9.79-7.74 1.17-15.17-3.78-19.2-10.1-.49-1.08-.97-2.15-1.45-3.22-.11-11.92.62-23.84.31-35.76.15-6.67.52-13.33.48-20.01.33-7.92.17-15.85.44-23.77.06-4.57.01-9.26 1.41-13.66 1.17-2.39 2.57-4.7 4.45-6.61m-1.78 7.44c-.61 4.26-1.32 8.54-1.14 12.86-.09 17.02-.01 34.05-.41 51.07-.35 7.65-.72 15.32-.44 22.98.35 2.09.13 4.69 1.9 6.19 1.5 2.77 3.07 5.77 6.02 7.25 6.68 4.41 16.87 1.92 20.52-5.27 2.39-5.04 1.9-10.81 2.02-16.24-.22-12.56.67-25.15-.06-37.7.51-11.67.17-23.44.27-35.15.22-6.29-4.09-12.23-10.21-13.77-2.43-1.48-5.52-1.15-8.24-1.62-4.78 1.01-9.06 4.53-10.23 9.4z"/></g><g fill="#a22613"><path d="M174.27 128.22c-2.46-4.67 1.44-9.53 5.78-11.14 1.39.27 2.78.54 4.19.72-5.4.44-10.41 4.68-9.97 10.42zM589.75 145.1c1.17-4.87 5.45-8.39 10.23-9.4 2.72.47 5.81.14 8.24 1.62-4.55-.86-9.69-.5-13.32 2.68-3.48 2.91-4.82 7.61-4.77 12.01-.05 14.16-.72 28.32-.8 42.49-.42 8.8-.05 17.63-.43 26.44.05 5.75-.56 11.6.76 17.26-1.77-1.5-1.55-4.1-1.9-6.19-.28-7.66.09-15.33.44-22.98.4-17.02.32-34.05.41-51.07-.18-4.32.53-8.6 1.14-12.86zM274.02 212.74c5.97-.64 12.47-2.4 16.1-7.59.44-.2 1.34-.62 1.78-.82-.59 2.67-1.47 5.4-3.26 7.54-4.53 2.49-8.71 6.19-14.1 6.55-24.58 2.45-49.09 5.53-73.65 8.17-4.38.57-8.86 1.82-13.27.79-4.02-.85-6.86-4.01-10.11-6.25l-.25-.21c-1-3.33-1.24-6.82-1.23-10.28 1.79 3.7 4.23 7.4 8.09 9.19 5.61 2.67 11.98 1.8 17.94 1.21 23.99-2.75 47.97-5.57 71.96-8.3z"/></g><g fill="#686868"><path opacity=".44" d="M447.04 119.5c-.28-1.43.27-1.93 1.66-1.52.25 1.39-.3 1.89-1.66 1.52zM417.26 122.24c.54.59.54.59 0 0z"/></g><path fill="#d93c23" d="M79.22 126.15c11.93-4.76 25.25-7.17 38.02-5.23-5.68.32-11.37.07-17.04.33 3.12 1.23 6.53.57 9.79.74 3.2.15 6.41-.03 9.54-.76 1.99-.08 3.93.67 5.88.97l-.01.46c.25 1.59.75 1.68 1.53.28.65.11 1.94.35 2.59.46 10.32 3.82 21.11 10.47 24.69 21.47-.01 3.47.29 7.4-2.11 10.24-3.1 3.81-7.06 7.62-12.16 8.26-4.36.25-9.3-.47-12.32-3.97-4.03-4.34-8.39-8.46-13.59-11.39-3.24-2.24-7.36-1.63-11.06-1.67-7.55.14-15.23 4.02-18.8 10.86-5.59 10.36-5.65 23.25-1.3 34.07.59 1.56 1.27 3.1 2.06 4.58-1.85 2.83 1.61 5.1 3.42 6.81 3.47 2.41 7.89 5.59 12.24 3.57 6.23-.07 12.93-.66 18.04-4.61 4.09-2.62 6.52-6.94 8.87-11.03.68-1.14 1.34-2.28 2.02-3.41.84-1.44 1.78-2.81 2.83-4.11.9-.96 1.85-1.86 2.85-2.72 4.98-3.52 11.8-4.16 17.16-1.1 3.89 1.68 6.67 5.63 7.81 9.61.11 2.56.1 5.14-.08 7.7-2 4.4-3.53 9.11-6.57 12.94-6.67 8.52-15.47 15.64-25.8 19.15-13.95 4.54-29.46 7.4-43.76 2.76 1.21-.52 2.42-1.04 3.63-1.57 11.84 1.8 24.02.39 35.45-2.99 13.8-4.44 27.33-13.68 32.32-27.85.61-3.25 1.38-6.68.34-9.91-2.03-5.6-8.47-9.57-14.35-7.59-5.28 1.67-7.97 6.94-10.45 11.47-3.66 7.35-10.02 13.69-18.12 15.83-8.49 2.31-18.58 1.92-25.57-4.01-7.37-5.9-10.25-15.61-10.93-24.69-.72-10.05 1.12-21.07 8.22-28.68 6.67-7.6 17.77-9.98 27.41-8.09 6.03 1.83 11.22 5.69 15.35 10.38 2.73 2.65 5.42 6.55 9.74 6.1 5.23.8 10.17-2.41 12.64-6.85 2.42-4.58-.27-9.76-3-13.53-7.27-9.26-19.03-13.66-30.41-15.11-15.1-1.42-30.99 1.41-43.98 9.49-4.69 3.2-9.19 6.84-12.5 11.51-7.56 9.44-10.98 21.71-11.06 33.68-.16 8.19.96 16.47 4.03 24.1-.92-.79-1.86-1.56-2.8-2.31-.03.6-.1 1.81-.13 2.41-5.41-11.31-4.28-24.2-3.81-36.35.12-1.12.27-2.23.45-3.34.93-3.85 2.77-7.37 4.14-11.06 5.92-11.91 16.34-21.3 28.65-26.3z"/><path fill="#841809" d="M609.52 133.93c5.2-3.86 9.85-8.45 12.64-14.39-.51 4.35-.35 8.84-1.78 13.03-1.2 1.75-2.37 3.51-3.65 5.2a21.183 21.183 0 0 0-7.21-3.84z"/><path fill="#f5563c" d="M100.2 121.25c5.67-.26 11.36-.01 17.04-.33.57.08 1.72.23 2.29.31-3.13.73-6.34.91-9.54.76-3.26-.17-6.67.49-9.79-.74z"/><g fill="#303030"><path opacity=".2" d="M357.26 122.27c.54.51.54.51 0 0zM331.28 351.29c.49.56.49.56 0 0z"/></g><g fill="#565656"><path opacity=".36" d="M468.27 122.3c.58.52.58.52 0 0zM410.22 357.21c.55.55.55.55 0 0z"/></g><path fill="#ff6249" d="M125.4 122.66l1.53.28c-.78 1.4-1.28 1.31-1.53-.28z"/><path fill="#f8ffff" d="M72.25 133.81c12.99-8.08 28.88-10.91 43.98-9.49 11.38 1.45 23.14 5.85 30.41 15.11 2.73 3.77 5.42 8.95 3 13.53-2.47 4.44-7.41 7.65-12.64 6.85-4.32.45-7.01-3.45-9.74-6.1-4.13-4.69-9.32-8.55-15.35-10.38 1.47-.03 2.93-.1 4.39-.21-4.25-3.48-10.2-2.45-15.28-2.24-6.11.33-11.72 3-16.48 6.72-4.45-2.4-7.85-6.22-11.22-9.89-1.16-.99-.9-2.56-1.07-3.9z"/><path fill="#a92713" d="M171.16 138.41c0-4.82-1.64-9.75-.4-14.5.02 4.32.01 9.6 3.95 12.38 3.44 1.85 7.48 2.17 11.31 2.07 13.6-1.23 27.11-3.47 40.74-4.33-1.69 2.55-3.48 5.04-5.33 7.48-4.13-.87-8.27.3-12.37.76-7.67.92-15.36 1.59-23.02 2.58-3.36.31-6.98.71-10.13-.78-2.01-1.47-3.21-3.75-4.75-5.66z"/><g fill="#464646"><path opacity=".29" d="M398.28 124.21c.53.56.53.56 0 0zM216.36 351.09c3.04-1.57.23 3.24 0 0z"/></g><path fill="#3e3e3e" opacity=".26" d="M391.04 125.39c3.27.17-1.5 3.05 0 0z"/><g fill="#404040"><path opacity=".27" d="M395.98 128.25c3.29.06-1.48 3.08 0 0zM353.31 322.19c.51.56.51.56 0 0z"/></g><path fill="#2a2a2a" opacity=".17" d="M496.2 128.1c3.02-1.5.14 3.29 0 0z"/><path fill="#393939" opacity=".24" d="M421.12 129.2c3.26.29-1.62 2.99 0 0z"/><path fill="gray" opacity=".53" d="M397.17 131.23c.59.59.59.59 0 0z"/><path fill="#dc3e25" d="M447.94 146.81c11.58-12.46 29.63-17.14 46.17-15.07.95.49 1.96.67 3.04.53 6.15.77 12.08 3.09 17.29 6.43l1.26.93c.97.67 1.92 1.35 2.86 2.09.9.74 1.8 1.51 2.69 2.29.77-1.59 1.55-3.17 2.45-4.69 3.02-3.81 7.37-6.8 12.33-7.14 7.24-1.01 15.97 2.18 18 9.88 1.09 5.24.75 10.6.73 15.91-.21 12 .12 24.02-.96 35.99.04 6.54-.9 13.2.64 19.63.08 6 .36 12.15-.71 18.07l-.73.31c-.59-5.98-.17-11.99-.48-17.98-.62 9.34.61 18.74-.92 28.02-1.26 14.38-6.9 28.95-18.26 38.32-8.74 7.19-19.98 10.21-31 11.65-8.39-.56-16.79-.27-25.19-.26 1.02-.58 2.04-1.15 3.08-1.7.51-.23 1.52-.7 2.03-.93 13.48.03 27.47-.17 40.03-5.7 9.92-4.07 17.89-12.46 21.63-22.49 2.26-6.07 3.78-12.45 4.18-18.93.38-3.87.87-7.73 1.01-11.63 1.04-4.32 1.72-8.87.13-13.17.19-5.28.77-10.53.85-15.81 1.01-4.34 1.72-8.88.16-13.19.28-6.4.98-12.78.75-19.19-.33-8.44 1.52-17.06-.78-25.35-.81-3.68-3.79-6.56-7.45-7.37-4.67-.89-10.16-.68-13.69 2.92-4.11 3.76-4.08 9.71-4.35 14.85-6.12-8.18-14.61-14.86-24.62-17.42-11.01-2.7-22.85-2.12-33.44 1.98-11.96 4.79-21.56 14.8-26.3 26.74-5.34 13.49-6.12 28.61-3.1 42.74 2.93 12.83 11.22 24.68 23.38 30.23 9.11 4 19.47 5.31 29.29 3.66.25.53.76 1.57 1.01 2.1-7.62.28-15.44.98-22.88-1.12-5.98-1.49-11.4-4.61-17.41-5.96-4.76-3.76-8.57-8.5-12.38-13.17-.97-2.34-1.95-4.67-2.88-7.02-.19-.49-.56-1.49-.75-1.98-3.01-8.28-3.61-17.16-3.46-25.88-.14-.21-.41-.63-.55-.85l.8-2c1.14-14.34 5.91-29.08 16.5-39.27z"/><g fill="#2d2d2d"><path opacity=".19" d="M371.28 132.12c3.06-1.47.05 3.29 0 0zM285.29 270.26c.54.51.54.51 0 0zM315.24 362.29c.51.54.51.54 0 0z"/></g><path fill="#ababab" opacity=".71" d="M454.29 132.16c.63.64.63.64 0 0z"/><path fill="#1f0400" opacity=".34" d="M587.41 131.87c1.1 2.11 2.61 3.95 4.12 5.79-1.88 1.91-3.28 4.22-4.45 6.61-.9-4.13.62-8.25.33-12.4z"/><path fill="#ebf5f5" d="M59.75 145.32c3.31-4.67 7.81-8.31 12.5-11.51.17 1.34-.09 2.91 1.07 3.9 3.37 3.67 6.77 7.49 11.22 9.89 4.76-3.72 10.37-6.39 16.48-6.72 5.08-.21 11.03-1.24 15.28 2.24-1.46.11-2.92.18-4.39.21-9.64-1.89-20.74.49-27.41 8.09-7.1 7.61-8.94 18.63-8.22 28.68.68 9.08 3.56 18.79 10.93 24.69 6.99 5.93 17.08 6.32 25.57 4.01 8.1-2.14 14.46-8.48 18.12-15.83 2.48-4.53 5.17-9.8 10.45-11.47 5.88-1.98 12.32 1.99 14.35 7.59 1.04 3.23.27 6.66-.34 9.91-.16-.78-.49-2.34-.65-3.12-2.79 5.13-5.26 10.49-9.06 14.99-8.36.59-16.35-2.45-24.52-3.53-6.36 2.63-13.04 5.44-20.11 4.64-8.14-1.05-16.63-4.78-20.92-12.14-4.96-7.25-6.63-16.2-6.24-24.86.32-2.19-.65-4.14-2.46-5.35-5.5-4.47-11.22-8.92-15.43-14.69.87-3.35 3.06-6.2 3.78-9.62z"/><path fill="#791405" d="M263.85 140.96c1.7-2.65 3.65-5.13 5.76-7.46-.26 3.1-1.19 6.14-2.8 8.81-.68 1.07-1.36 2.13-2.03 3.2-2.42 2.79-4.82 5.63-6.59 8.9-.06.11-.19.32-.26.43-5.7 6.73-10.58 14.09-15.91 21.11-3.15 4.46-6.68 8.67-9.42 13.41l-1.16.06c-.64-.13-1.91-.41-2.55-.54 11.17-16.31 23.33-31.94 34.96-47.92z"/><g fill="#f6ffff"><path d="M466.67 138.59c10.59-4.1 22.43-4.68 33.44-1.98 10.01 2.56 18.5 9.24 24.62 17.42.27-5.14.24-11.09 4.35-14.85 3.53-3.6 9.02-3.81 13.69-2.92 3.66.81 6.64 3.69 7.45 7.37 1.18 14.7-.4 29.45-.71 44.16-.9 1.1-1.79 2.22-2.67 3.33-8.04-1.99-15.93-4.77-23.37-8.43-.19-7.4-2.23-15.2-7.21-20.86l-.6 2.17c-5.14-6.58-13.39-10.18-21.66-10.19-4.39.21-8.68 1.25-12.74 2.88l-2.15.12c.9-.82 1.81-1.62 2.73-2.42-5.13-5.2-10.54-10.14-15.17-15.8zM441.76 248.16c3.39-.73 7.11-.99 10.31.61 6.78 3.04 9.18 10.95 15.2 14.96 8.18 5.71 18.77 5.5 28.28 4.59l1.43 1.27c-9.09.73-18.72 1.32-27.3-2.35-8.22-3.39-11.28-12.91-18.76-17.29-2.91-1.2-6.1-1.29-9.16-1.79z"/></g><g fill="#414141"><path opacity=".27" d="M400.1 136.44c3.27.25-1.6 2.98 0 0zM247.18 372.25c.55.53.55.53 0 0z"/></g><path fill="#f7ffff" d="M594.9 140c3.63-3.18 8.77-3.54 13.32-2.68 6.12 1.54 10.43 7.48 10.21 13.77-.1 11.71.24 23.48-.27 35.15-2.53 4.76-1.75 10.25-2.61 15.38-2.37 1.49-5.3 1.39-7.96 1.89-5.39.89-10.83 1.46-16.3 1.58-.3 1.97-.6 3.94-.92 5.91-.38-5.5.38-11.1-1.04-16.5.08-14.17.75-28.33.8-42.49-.05-4.4 1.29-9.1 4.77-12.01z"/><g fill="#eff9f9"><path d="M518.56 141.72c1.12-2.04 2.78-4.15 5.14-2.4-.9 1.52-1.68 3.1-2.45 4.69-.89-.78-1.79-1.55-2.69-2.29zM339.59 182.96c6.73-1.29 13.62-.01 20.42-.35 8.77.76 17.71-.48 26.37 1.32-3.54 2.18-7.66-.45-11.26 1.39-6.89 2.92-14.82 4.07-22.01 1.49-4.38-1.72-9.03-2.51-13.52-3.85z"/></g><path fill="#8f1706" d="M171.16 138.41c1.54 1.91 2.74 4.19 4.75 5.66 3.15 1.49 6.77 1.09 10.13.78 7.66-.99 15.35-1.66 23.02-2.58 4.1-.46 8.24-1.63 12.37-.76-1.63 2.19-3.26 4.38-4.95 6.53-9.21.42-18.32 2-27.5 2.65-4.76.31-9.65.04-14.02-2.03a38.8 38.8 0 0 1-2.53-3.86c-.76-2.05-1.06-4.23-1.27-6.39z"/><path fill="#e8f3f3" d="M440.37 165.33c4.74-11.94 14.34-21.95 26.3-26.74 4.63 5.66 10.04 10.6 15.17 15.8-.92.8-1.83 1.6-2.73 2.42l2.15-.12c-9.35 5.01-14.61 15.13-16.01 25.35-1.04 8.47-1.48 17.55 2.13 25.51 3.27 7.47 10.51 12.95 18.56 14.19 6.21.74 12.85.51 18.42-2.66 5.54-2.56 9.78-7.14 12.98-12.24 9.27 4.76 19.31 7.86 29.44 10.17.96-4.42.95-9 2.1-13.39-.2 11.06-.39 22.13-1.09 33.17-.37 1.59-.77 3.18-1.05 4.79-.96 3.01-1.84 6.05-2.44 9.16-6.01-.54-11.67-2.8-17.41-4.51-2.28-.97-5.34-1.17-6.86-3.25.85-6.24.54-12.53.04-18.79-.51.38-1.54 1.13-2.06 1.51-6.88 8.65-17.06 14.79-28.07 16.26-9.82 1.65-20.18.34-29.29-3.66-12.16-5.55-20.45-17.4-23.38-30.23-3.02-14.13-2.24-29.25 3.1-42.74z"/><g fill="#f1f1f1"><path d="M368.68 140.7c3.91-.36 5.1 3.97 8.04 5.61 3.81 2.45 7.21 5.43 10.57 8.44l2.39.36c-.3-.58-.9-1.76-1.2-2.34l1.24.45.79 1.55c2.89-2.51 2.84-6.65 2.47-10.13.98.85 1.54 2.04 2.16 3.15-.94 1.71-1.71 3.5-2.41 5.31.52.16 1.55.49 2.07.66.56 1.38 1.43 2.5 2.61 3.36.69-1.97-.61-4.25.61-6.05.95-1.49 1.91-2.97 2.81-4.49-.13 1.59.18 3.12.9 4.55-1.7-.17-2.49 1.42-3.17 2.69-.54 1.99 1.51 3.24 2.39 4.75 3.77-2.66 5.12-7.4 7.92-10.71-.22 3.33-3.19 5.55-4.3 8.59 1.54.07 3.22.17 4.11 1.7.71-.8 1.44-1.58 2.19-2.34.23 2.64 4.34 2.31 3.92 5.24-.15 3.96-5.03 3.34-6.53.65 1.19 4.13-2.85 6.76-3.2 10.53 2.08-1.68 3.74-3.82 5.93-5.38-1.46 2.23-3.33 4.14-5.25 5.98 1.21 2.86 2.51 5.68 4.55 8.07-.56-2.36 2.03-3.68 3.91-3.73-1.17 1.14-1.75 2.68-2.31 4.17 3.35-1.54 6.53-3.42 9.94-4.83-2.19 3.14-7.56 3.66-7.81 8.15-.99-.65-1.97-1.29-2.94-1.93-.42 0-1.27.01-1.7.02.24 3.09 1.43 6.1 1.23 9.23.22.22.67.67.89.9l-.13-1.81 3.19 1.2c1.32-.98 2.78-1.74 4.37-2.2.2.5.61 1.5.81 2.01-1.54.87-3.14.28-4.76.34-1.38 1.35-2.54 2.89-3.88 4.27-.36-.39-1.08-1.18-1.43-1.58-.24.72-.71 2.15-.94 2.86 1.41 1.91 3.34-.72 4.22-1.89.24.96.73 2.87.97 3.82-.69 1.92-2.86 2.73-4.23 4.12-1.26-.71-2.49-1.48-3.68-2.3.31 1.93.63 3.87.73 5.83 1.1-.62 2.25-1.11 3.46-1.47 1.83-1.93 4.66-.19 6.94-.24l.39 1.02c-.44.52-1.31 1.56-1.74 2.09-.3-.72-.89-2.16-1.19-2.88-1.21 1.37-2.81 1.68-4.52 1.38-.55.36-1.65 1.1-2.2 1.46-.38 1.24.37 3.13-1.07 3.82-1.22-.06-2.21-.99-3.32-1.41l1.07 1.25c.04.95.11 2.85.15 3.8-.97.52-1.93 1.04-2.9 1.55.15.62.3 1.24.46 1.87 2.93 3.76 6.72 6.93 8.31 11.57-5.17-1.48-9.99-3.91-14.9-6.06-4.62-1.55-2.17-7.25-2.22-10.81.64-.88 1.27-1.76 1.9-2.65l.35-.52c2.11-6.41 6.91-12.71 4.09-19.77-1.3-4-3.92-7.71-7.79-9.55-6.95-3.6-15.01-2.6-22.54-2.9l-1.06-.04c-.12-1.95-.31-3.93.1-5.86l-1.6.44c.42-.33 1.27-.98 1.69-1.3-3.21-1.7-.89-4.85.41-6.96.5.19 1.49.57 1.98.76-1.43-2.3-1.63-5.14 1.23-6.37-2.24-.65-1.61-4.38.59-2.28.94-1.01 1.88-2.02 2.84-3.03-.29-2.34-.6-4.69-.8-7.04-.46.17-1.37.52-1.83.7-1.11-2.72-3.84-4.48-4.34-7.42m35.74 66.61c-1.2.59-.9 2.31-.55 3.34.38.1 1.14.28 1.52.38.53-1.58.21-2.82-.97-3.72zM358.41 157.75c.35.37 1.05 1.11 1.39 1.48-.51 3.91 1.11 7.78.48 11.74.22-.66.66-1.98.87-2.64 1.11.1 2.11-.22 2.99-.94.5 1.94.86 3.93.73 5.95-.72-1.62-1.3-3.31-1.95-4.95-1.04 3.26.36 7.02.61 10.47-.66-.03-1.99-.1-2.66-.14-.03-1.49-1.32-2.92-2.9-2.25-.24.56-.7 1.68-.94 2.23h-.83c-.02-.78-.04-2.34-.05-3.12-.27-.41-.82-1.23-1.09-1.63-.16 3.33-4.51 3.18-4.2-.01l3.02-.44.08 1.45c.67-.96 1.29-1.95 1.89-2.95-.49-.54-1.46-1.6-1.94-2.13l.6-.29c-.61-2.25-1.35-4.5-1.37-6.86 1.44 2.07.29 5.91 2.64 7.11.63-3.09 1.43-6.24.97-9.41.55-.89 1.1-1.79 1.66-2.67m-.47 4.32c-1.4 4.42-1.8 9.15-.55 13.68l2.67-.36-1.75-.05c1.96-4.27.68-9.19.84-13.74l-1.21.47zM304.29 243.06c1.37 1.49 2.77 2.96 4.29 4.3 3.95 2.06 4.43 7.42 8.63 9.23l1.96-.68c-1.18-1.32-2.39-2.61-3.56-3.93 1.8 1.03 3.81 3.14 6 1.66 1.83-1.37 5.28-3.52 3.07-6.19 1.02.7 3.05 2.11 4.07 2.81-1.73.58-2.73 2.18-3.4 3.77-.1 3.15 3.65 1.4 5.58 1.93 1.59 1.24 3.37 2.66 3.37 4.89.44.03 1.32.08 1.76.11-.06.58-.17 1.74-.23 2.33-1.2.97-2.33-.4-3.47-.74.72 1.16 1.47 2.3 2.25 3.43-1.49 2.57-2.73 5.76-5.72 6.94-4.16 2.05-8.95.54-13.28 1.71-5.27 1.89-4.54 9.34-9.64 11.42-2.45.69-5.16-.28-6.93-2.03-1.74-2.15-2.93-4.73-5.04-6.58l-.32-.33c1.38-1.47 2.59-3.09 3.69-4.77 1.76-1.63 4.33-.46 6.46-.7.75-1.83 1.64-3.67 1.45-5.7-2.44.38-4.91.69-7.2 1.66-.78-1.08-.77-2.2.12-3.2 1.94 2.43 4.17.61 5.6-1.24-.98-4.03-.36-8.24-1.38-12.28 1.72.67 2.1 1.88 1.11 3.63l3.45-.45c-.02.45-.07 1.35-.09 1.8l-.56-1.42c-.74.45-1.48.91-2.21 1.37.35 2.67.6 5.35.91 8.03.75.02 2.24.08 2.98.11 2.21-2.58-1.06-4.77-2.11-7.03 1.14.58 2.28 1.18 3.42 1.79l.96-2.36c-2.59-1.74-2.37-5.39-3.72-7.98-1.6-1.34-1.97-3.37-2.27-5.31zM286.52 260.6c-.76-2.02 1.58-3.67 3.34-3.8.04 1.7-.07 3.41-.13 5.12-1.26.26-2.66-.04-3.21-1.32zM313.83 298.11c2.74-1.28 1.67-5.87 5.16-6.14 3.47-.41 4.52 3.43 4.99 6.09-1.91 2.05-5.22 3.38-7.25.69-.73-.16-2.18-.48-2.9-.64zM295.44 310.58c2.8.03 5.98-1.22 8.47.55 1.75 1.34 3.47 2.74 5.42 3.83-.61-.24-1.83-.73-2.44-.97.08 1.92-.07 3.82-.45 5.7 2.6-.46 7.08 2.79 7.65-1.26-1.73.52-2.78-1.07-4.09-1.77l.18-.52 1.47.87c-.57-1.67.37-4.01 2.39-3.82 2.92.1 3.66 4.97.41 5.45l-.75 1.01c3.44-1.16 7.12-.91 10.53.2 1.24 4.45-4.07 6.29-6.67 8.72-3.32 2.94-1.93 7.68-1.4 11.46-2.24 3.02-5.17 6.19-9.21 6.33-3.57.3-6.12-2.66-9.29-3.72-4.44-1.38-9.05-2.08-13.66-2.56-3.48-.26-7.19-2.51-8.04-6.07-.87-4.42-5.13-6.79-6.8-10.81 1.29-1.55 1.26-3.48.51-5.24.35.54 1.06 1.63 1.42 2.17 1.18-1.02 2.36-2.05 3.53-3.09l.33 1.03c.18-.78.56-2.33.74-3.11.37.52.75 1.04 1.13 1.57 3.36-2.75 6.31 1.38 9.82.95 1.78 3.77 6.59 4.85 8.82 8.27 1.17-.69 2.36-1.36 3.49-2.11-.74-4.36-7.74-4-8.76-8.16.67.1 2.01.31 2.68.42-1.07-2.51 1.85-3.3 2.57-5.32zM355.45 325.67c1.76-1.12 4.85-1.17 5.36 1.34.43 2.11-2.57 2.71-2.33 4.79-1.72-1.72-3.67-3.44-3.03-6.13z"/></g><g fill="#881807"><path d="M554.03 142.06c.84 2.55 1.35 5.2 1.57 7.88 1.53 17.98-.15 35.99-.43 53.98-.32 3.21.24 6.55-.73 9.67-1.54-6.43-.6-13.09-.64-19.63 1.08-11.97.75-23.99.96-35.99.02-5.31.36-10.67-.73-15.91zM473.03 174.02c3.47-4.93 8.47-9.93 14.95-9.83 5.21.1 10.46.86 15.44 2.41 5.94 1.79 9.86 6.97 13.43 11.71 1.14 5.2 2.42 11.13.04 16.13.12-3.92 1.63-8.16-.52-11.79-3.63-8.59-13.46-13.49-22.54-11.9-1.4.18-2.79.4-4.16.67-6.18 1.81-10.92 6.74-13.75 12.37-1.33 3.63-2.38 7.4-3.06 11.21-.38 3.84-.52 7.71-.64 11.57-1.49-1.39-2.12-3.36-2.27-5.34-.47-9.12-.39-18.63 3.08-27.21z"/></g><path fill="#2f0700" opacity=".51" d="M264.78 145.51c.67-1.07 1.35-2.13 2.03-3.2 2.43 5.66-.95 11.49-1.55 17.16-1.48-1.08-2.95-2.16-4.45-3.21 2.29-3.17 3.98-6.77 3.97-10.75z"/><path fill="#c4b7b4" d="M550.22 143.63c2.3 8.29.45 16.91.78 25.35.23 6.41-.47 12.79-.75 19.19-.3 4.39-.3 8.79-.16 13.19-.08 5.28-.66 10.53-.85 15.81-.29 4.38-.31 8.78-.13 13.17-.14 3.9-.63 7.76-1.01 11.63-.08-1.73-.23-3.45-.31-5.18.7-11.04.89-22.11 1.09-33.17.57-5.26.52-10.55.63-15.83.31-14.71 1.89-29.46.71-44.16z"/><path fill="#a32412" d="M154.21 144.87c.7 2.6 1.23 5.27 1.25 7.97-1.52 7.16-5.7 13.76-12.12 17.44-3.05 1.53-6.92 2.22-10.02.43-5.74-3.08-8.79-9.36-14.35-12.7-6.26-3.76-13.93-3.65-20.96-2.99-6.15.49-10.81 5.34-13.84 10.32-3.82 8.14-1.85 17.33-1.3 25.93-4.35-10.82-4.29-23.71 1.3-34.07 3.57-6.84 11.25-10.72 18.8-10.86 3.7.04 7.82-.57 11.06 1.67 5.2 2.93 9.56 7.05 13.59 11.39 3.02 3.5 7.96 4.22 12.32 3.97 5.1-.64 9.06-4.45 12.16-8.26 2.4-2.84 2.1-6.77 2.11-10.24z"/><path fill="#210400" opacity=".37" d="M172.43 144.8a38.8 38.8 0 0 0 2.53 3.86l.08 1.05c-.16 3.92.93 8.78 5.25 10 7.17 1.7 14.48-.32 21.7-.48 1.66-.11 3.1.84 4.57 1.47-.69.89-1.38 1.78-2.07 2.68-8.08-.84-16.2 2.4-24.19.24-4.23-1.09-4.88-5.93-6.75-9.21-1.55-2.97-.95-6.41-1.12-9.61z"/><path fill="#e13f25" d="M643.49 150.92c.36-2.05.73-4.11 1.29-6.12-.22 2.52-.32 5.26 1.39 7.35.57.93 1.22 1.82 1.9 2.69 1.85 1.75 4.12 3.01 6.59 3.65 2.35.5 4.76.54 7.16.6.83 16.95.78 33.92.83 50.89.09 5.24.13 10.65 1.91 15.64.36 1.39.7 2.8 1.06 4.2 1.33 7.09 6.41 13.19 12.99 16.06 8.43 4.12 18.2 3.94 27.37 3.6.52.41 1.58 1.25 2.11 1.67-4.03.42-8.07.35-12.1.3-5.11-.05-10.38.87-15.3-.93-6.62-2.32-13.32-6.2-16.49-12.75-3.85-7.61-4.36-16.35-4.75-24.72-.48-16.89-.61-33.79-.7-50.69-4.46-.71-9.31-1.21-12.92-4.2-2.95-2.46-3.98-6.43-4.15-10.12.17-.61.5-1.84.67-2.46l.17.72c.31 1.54.66 3.08.97 4.62z"/><path fill="#e4efef" d="M48.69 179c.08-11.97 3.5-24.24 11.06-33.68-.72 3.42-2.91 6.27-3.78 9.62 4.21 5.77 9.93 10.22 15.43 14.69 1.81 1.21 2.78 3.16 2.46 5.35-.39 8.66 1.28 17.61 6.24 24.86 4.29 7.36 12.78 11.09 20.92 12.14 7.07.8 13.75-2.01 20.11-4.64 8.17 1.08 16.16 4.12 24.52 3.53 3.8-4.5 6.27-9.86 9.06-14.99.16.78.49 2.34.65 3.12-4.99 14.17-18.52 23.41-32.32 27.85-11.43 3.38-23.61 4.79-35.45 2.99-6.06-1.17-12.09-2.94-17.34-6.27-3.4-4.07-7.64-7.35-11.8-10.61-2.42-2.96-4.17-6.38-5.73-9.86-3.07-7.63-4.19-15.91-4.03-24.1z"/><path fill="#460a01" opacity=".76" d="M258.19 154.41c1.77-3.27 4.17-6.11 6.59-8.9.01 3.98-1.68 7.58-3.97 10.75-.65-.46-1.96-1.39-2.62-1.85z"/><path fill="#9f2513" d="M717.38 145.68c2.91 6.16-.49 12.31-2.49 18.11l-.35.22c-3.45 1.99-6.43 4.84-10.26 6.11-2.65.87-5.37 1.43-8.07 2.07-.01 1.22-.02 2.45-.02 3.68-.02 7.74.2 15.48.7 23.21.16 6.69.57 13.4.62 20.08l-.76-1.19c-.51-3.3-.23-6.65-.51-9.97-1.59-13.27-.02-26.7-1.53-39.99.1-1.77-.71-4.04.47-5.51 6.52-1.09 13.73-.74 19.31-4.94 2.74-2.15 3.1-5.86 2.95-9.09-.01-.7-.05-2.09-.06-2.79z"/><path fill="#470900" opacity=".77" d="M188.98 150.69c9.18-.65 18.29-2.23 27.5-2.65-1.77 2.24-3.5 4.5-5.3 6.71-2.38.34-4.76.61-7.13.95l-1.32 1.8c-1.82-.72-3.63-1.95-5.68-1.63-5.19.6-10.46 1.27-15.66.53-3.34-.62-5.02-3.92-6.35-6.69l-.08-1.05c4.37 2.07 9.26 2.34 14.02 2.03z"/><g fill="#ea4026"><path d="M713.93 153.43c.99-1.77 2.23-3.39 3.51-4.96.15 3.23-.21 6.94-2.95 9.09-5.58 4.2-12.79 3.85-19.31 4.94-1.18 1.47-.37 3.74-.47 5.51 1.51 13.29-.06 26.72 1.53 39.99.28 3.32 0 6.67.51 9.97l.76 1.19c.85 1.52 1.68 3.08 2.73 4.51 6.94 1.35 13.83-2.18 20.76-.74 3.16 1.23 6.67 2.87 8.36 5.97.82 4.39 2.86 10.36-1.69 13.39l-.52-2.69c.08-2.67.69-5.61-.86-8-1.27-2.38-3.77-3.65-6.07-4.82.13-.85.27-1.7.42-2.55-8.17-.03-16.25 2.2-24.44 1.07-2.22-2.97-3.06-6.64-3.22-10.28-.73-17.81-1.01-35.63-1.78-53.44-.01-.56-.05-1.69-.06-2.25 5.78.36 11.64.14 17.3-1.19 2.02-.47 3.6-1.91 4.9-3.46.15-.32.44-.94.59-1.25zM88.35 202.66c-1.81-1.71-5.27-3.98-3.42-6.81l1.05 1.34c.21.28.63.83.84 1.11.22.29.68.88.91 1.17 3.16 3.96 8.08 5.71 12.86 6.76-4.35 2.02-8.77-1.16-12.24-3.57z"/></g><path fill="#340600" opacity=".56" d="M175.04 149.71c1.33 2.77 3.01 6.07 6.35 6.69 5.2.74 10.47.07 15.66-.53 2.05-.32 3.86.91 5.68 1.63l1.32-1.8c2.37-.34 4.75-.61 7.13-.95-1.52 2-3.05 3.99-4.62 5.95-1.47-.63-2.91-1.58-4.57-1.47-7.22.16-14.53 2.18-21.7.48-4.32-1.22-5.41-6.08-5.25-10z"/><path fill="#272727" opacity=".16" d="M431.09 152.42c3.28.08-1.47 3.06 0 0z"/><path fill="#841505" d="M155.46 152.84c1.77 5.89 1.98 13.17-3.1 17.52-4.69 4.29-11.58 6.26-17.64 3.92-5.87-2.82-9.13-8.89-14.45-12.46-5.52-4.22-13.11-3.92-19.49-2.13-9.18 2.84-14.93 12.47-15.22 21.75-.68 3.93-.55 7.92.12 11.83.09 1.31.19 2.61.3 3.92l-1.05-1.34c-.79-1.48-1.47-3.02-2.06-4.58-.55-8.6-2.52-17.79 1.3-25.93 3.03-4.98 7.69-9.83 13.84-10.32 7.03-.66 14.7-.77 20.96 2.99 5.56 3.34 8.61 9.62 14.35 12.7 3.1 1.79 6.97 1.1 10.02-.43 6.42-3.68 10.6-10.28 12.12-17.44z"/><path fill="#da3f26" d="M481.26 156.69c4.06-1.63 8.35-2.67 12.74-2.88 8.27.01 16.52 3.61 21.66 10.19 7.26 10.68 8.05 24.81 4.18 36.88-3.33 3.48-4.85 8.29-8.44 11.55-2.39 2.18-5 4.12-7.04 6.65-5.57 3.17-12.21 3.4-18.42 2.66-8.05-1.24-15.29-6.72-18.56-14.19-3.61-7.96-3.17-17.04-2.13-25.51 1.4-10.22 6.66-20.34 16.01-25.35m11.03.81c-4.43.46-9.13 1.17-12.65 4.15-7.86 6.19-10.65 16.69-11.06 26.28.14 4.42-.64 9.19 1.37 13.3.15 1.98.78 3.95 2.27 5.34.18.84.46 1.67.72 2.5 3.84 5.09 9.71 8.68 16.15 9.02 8.4.9 16.97-2.82 22.15-9.47.67-1.03 1.37-2.06 2.09-3.06 1.31-2.73 2.42-5.54 3.43-8.39-.82.23-2.46.7-3.29.93.05-.27.14-.82.19-1.09 1.12-.37 2.24-.75 3.36-1.14-.03-.35-.1-1.07-.13-1.43 2.38-5 1.1-10.93-.04-16.13-.26-12.22-12.7-21.85-24.56-20.81z"/><path fill="#100200" opacity=".17" d="M173.55 154.41c1.87 3.28 2.52 8.12 6.75 9.21 7.99 2.16 16.11-1.08 24.19-.24-1.37 1.83-2.77 3.64-4.19 5.43-6.78.3-13.73 2.87-20.39.49-3.17-.69-4.48-3.93-5.6-6.6-.9-2.64-2.4-5.61-.76-8.29z"/><path fill="#450900" opacity=".75" d="M242.02 175.95c5.33-7.02 10.21-14.38 15.91-21.11l2.76 1.92.5.54c-6.29 7.43-11.58 15.62-17.46 23.36-1.03 1.35-2.32 2.46-3.63 3.52-.15.13-.45.37-.61.5 1.48 1 2.91 2.07 4.32 3.17-1.29.28-2.59.54-3.88.77-1.78.19-3.56.41-5.34.61-.5.03-1.49.1-1.99.13 2.74-4.74 6.27-8.95 9.42-13.41z"/><path fill="#a62613" d="M492.29 157.5c11.86-1.04 24.3 8.59 24.56 20.81-3.57-4.74-7.49-9.92-13.43-11.71-4.98-1.55-10.23-2.31-15.44-2.41-6.48-.1-11.48 4.9-14.95 9.83-3.47 8.58-3.55 18.09-3.08 27.21-2.01-4.11-1.23-8.88-1.37-13.3.41-9.59 3.2-20.09 11.06-26.28 3.52-2.98 8.22-3.69 12.65-4.15z"/><path fill="#8d1807" d="M640.4 165.84c-1.29-2.96-.54-6.25.09-9.27 1.45 3.54 2.84 7.64 6.43 9.59 3.15 1.98 7 1.33 10.53 1.35.41 14.5.27 29.01.67 43.51-.52 8.78.72 17.54 2.55 26.1 1.85 4.88 2.66 10.75 7.09 14.11 7 5.71 16.47 6.82 25.2 6.52 12.12.4 24.46-2.42 34.66-9.13-.72 2.1-1.5 4.26-2.95 5.97-.92 1.02-1.87 2.02-2.84 2.98-5.08 3.96-11.66 4.98-17.88 5.68-8.75.6-17.72.56-26.21-1.93-5.76-1.92-11.31-5.19-14.78-10.3-3.28-4.09-4.07-9.39-5.29-14.32-1.81-17.06-1.04-34.26-1.55-51.39-.06-3.39-.09-6.78-.19-10.17-4.33-.26-8.6-1.46-12.11-4.09-.39-.41-1.17-1.24-1.56-1.65-.68-1.16-1.3-2.35-1.86-3.56z"/><path fill="#2b0600" opacity=".47" d="M261.19 157.3c.92 1.01 1.83 2.04 2.79 3.03-1.53 1.7-3.02 3.44-4.33 5.32-5.11 7.4-10.85 14.35-15.72 21.91-1.31-1.09-2.56-2.25-3.83-3.38 1.31-1.06 2.6-2.17 3.63-3.52 5.88-7.74 11.17-15.93 17.46-23.36z"/><g fill="#841404"><path d="M654.66 158.49c2.66.25 5.34.24 8.02.2.83 22.3-.32 44.7 1.88 66.93-1.78-4.99-1.82-10.4-1.91-15.64-.05-16.97 0-33.94-.83-50.89-2.4-.06-4.81-.1-7.16-.6zM482.01 253.68c11.64-.28 23-4.61 32.16-11.76-.31 2.11-.65 4.21-1.1 6.3-6.84 5.36-15.5 8.03-24.09 8.7l-3.04.2c-7.9-.13-15.88-1.27-23.13-4.53-.41-.47-1.22-1.41-1.63-1.88 1.53-.12 3.09-.09 4.55.47 5.23 1.76 10.8 2.21 16.28 2.5z"/></g><path fill="#470900" opacity=".76" d="M100.78 159.69c6.38-1.79 13.97-2.09 19.49 2.13 5.32 3.57 8.58 9.64 14.45 12.46 6.06 2.34 12.95.37 17.64-3.92l1.4-.03c-.66 2.94-1.42 5.89-1.4 8.92-5.36-3.06-12.18-2.42-17.16 1.1-7.87-3.62-12.07-12.32-20.49-14.96-6.86-1.95-14.73-.58-20.39 3.82-4.16 3.08-5.76 8.21-8.76 12.23.29-9.28 6.04-18.91 15.22-21.75z"/><path fill="#110200" opacity=".19" d="M259.65 165.65c1.31-1.88 2.8-3.62 4.33-5.32.69.69 1.4 1.36 2.12 2.01-5.21 8.82-12.22 16.42-17.39 25.25-1.59.24-3.21.3-4.78-.03 4.87-7.56 10.61-14.51 15.72-21.91z"/><path fill="#eef9f9" d="M516.26 161.83c4.98 5.66 7.02 13.46 7.21 20.86 7.44 3.66 15.33 6.44 23.37 8.43.88-1.11 1.77-2.23 2.67-3.33-.11 5.28-.06 10.57-.63 15.83-1.15 4.39-1.14 8.97-2.1 13.39-10.13-2.31-20.17-5.41-29.44-10.17 1-1.92 1.77-3.94 2.5-5.96 3.87-12.07 3.08-26.2-4.18-36.88l.6-2.17z"/><path fill="#e6f0f0" d="M691.2 161.58c.77 17.81 1.05 35.63 1.78 53.44.16 3.64 1 7.31 3.22 10.28 6.93 5.84 16.09.17 24.02 1.48 2.3 1.17 4.8 2.44 6.07 4.82 1.55 2.39.94 5.33.86 8-1.52 3.54-4.74 5.79-8.26 7.04-2.57-.11-5.12.12-7.62.64-10.85 1.92-21.99 1.12-32.66-1.4-6.58-2.87-11.66-8.97-12.99-16.06.98-.72 2.14-1.49 1.59-2.88a91.157 91.157 0 0 1-.85-22.62c3.59-2.78 7.71-4.82 11.39-7.5 4.02-2.92 8.92-5.03 11.84-9.19.76-8.66.64-17.41 1.61-26.05z"/><path fill="#821404" d="M704.28 170.12c3.83-1.27 6.81-4.12 10.26-6.11-.32 2.47-1.08 4.97-2.73 6.89-.62.62-1.26 1.22-1.91 1.8-.49.23-1.47.7-1.96.94-3.76 1.41-7.76 1.97-11.75 2.23 0-1.23.01-2.46.02-3.68 2.7-.64 5.42-1.2 8.07-2.07z"/><path fill="#350600" opacity=".56" d="M94.32 169.21c5.66-4.4 13.53-5.77 20.39-3.82 8.42 2.64 12.62 11.34 20.49 14.96-1 .86-1.95 1.76-2.85 2.72-5.57-3.78-9.37-9.76-15.43-12.84-8.14-3.74-18.79-1.95-24.65 5.05-4.87 4.65-6.17 11.56-6.59 17.99-.67-3.91-.8-7.9-.12-11.83 3-4.02 4.6-9.15 8.76-12.23z"/><g fill="#dedede"><path d="M430.56 166.71c.31-.32.91-.96 1.21-1.27 1.16.75 1.4 1.81.71 3.19-1.32.31-1.96-.33-1.92-1.92zM490.31 194.34c1.34-1.9 3.74.56 1.77 1.78-1.43 1.66-3.67-.34-1.77-1.78zM377.64 233c1.37-.47 1.84 0 1.41 1.41-1.39.45-1.86-.02-1.41-1.41zM330.25 293.73l.76-.29 1.76 1.64c-.63.97-1.46 1.03-2.51.19 0-.38-.01-1.16-.01-1.54zM326.44 316.74c.01-.45.01-1.34.02-1.78-.25 2.29 3.11 2.67 2.74 4.98.44 2.39-2.63 3.14-4.39 2.4.3 1.24.6 2.48.93 3.72-1.39 2.14-3.38 3.73-5.64 4.9.53.19 1.6.57 2.13.77-1.7-.95-3.02.02-4.24 1.17-.51 3.9.58 7.99-.97 11.72.61.84.8 1.8.59 2.88-.52-.78-1.03-1.55-1.53-2.33-.26 3.61-4.04 4.89-6.65 6.51-1.81-.78-3.82-.35-5.61.23-1.29 1.6-2.07 3.53-3.25 5.21.34-1.76.84-3.47 1.44-5.15-.81-1.34-1.25-4-3.49-3.19 1.27-2.95-2.12-3.32-3.92-2.13a12.02 12.02 0 0 1-2.25 4.76l.4-5.33c-3.6-2.22-7.46-.66-11.32-.87-.83.94-1.67 1.86-2.53 2.77.1-1.65.23-3.29.39-4.92-2.04-1.08-5.29-2.26-4.99-5.06-.26-.05-.78-.14-1.03-.19.05.57.17 1.72.22 2.3-.86.12-2.59.38-3.46.5 2.53-1.9 3.92-4.5 3.42-7.7-1.64-.09-3.31-.01-4.89-.5.82-.14 2.48-.42 3.31-.56-1.06-.64-2.11-1.29-3.16-1.93.64-2.2-.01-4.5.45-6.72 1.67 4.02 5.93 6.39 6.8 10.81.85 3.56 4.56 5.81 8.04 6.07 4.61.48 9.22 1.18 13.66 2.56 3.17 1.06 5.72 4.02 9.29 3.72 4.04-.14 6.97-3.31 9.21-6.33-.53-3.78-1.92-8.52 1.4-11.46 2.6-2.43 7.91-4.27 6.67-8.72l-.44-1.2c.66-.48 1.99-1.43 2.65-1.91zM282.53 394.88c-.58-.83-.22-3.17 1.17-2.57 1.08.73.07 3.06-1.17 2.57z"/></g><path fill="#100200" opacity=".18" d="M640.4 165.84c.56 1.21 1.18 2.4 1.86 3.56-.92 4.73-.77 9.77 1.18 14.24 1.63 3.93 6.74 4.63 8.61 8.38 1.27 2.81 1.39 5.97 1.75 8.99.42 5.03 1.59 10 1.52 15.07-.1 14.21-.75 28.71 3 42.57 2.36 8.44 9.81 14.64 17.98 17.18 11.26 3.38 23.43 3.34 34.8.49 3.31-.85 6.85-2.46 8.38-5.73.71-2 1.03-4.12 1.49-6.19.52-2.24.71-4.54.86-6.83.97-.96 1.92-1.96 2.84-2.98.5 6.19-1.2 12.24-2.91 18.12-1.24 3.49-2.28 7.34-5.09 9.95-3.73 3.14-8.73 4.01-13.41 4.66-10.59 1.03-21.55.61-31.61-3.17-3.76-1.51-6.67-4.48-9.24-7.51-3.36-4-4.27-9.27-6.09-14.02-1.52-4.39-1.5-9.11-1.91-13.69-1.01-10.62-.44-21.29-1.03-31.93.29-5.76-1.1-11.52-3.72-16.63-2.29-3.07-7.3-3.55-8.28-7.73-2.29-8.7-1.84-17.92-.98-26.8z"/><path fill="#b72f1a" d="M49.48 206.75c-5.29-12.46-6.58-26.77-3.5-39.9-.47 12.15-1.6 25.04 3.81 36.35 3.91 8.82 10.32 16.48 18.45 21.7 4.82 3.06 10.31 4.8 15.72 6.51 14.3 4.64 29.81 1.78 43.76-2.76.26.23.79.69 1.05.91-9.43 3.83-19.43 6.76-29.72 6.35-9 .47-18.24-.69-26.37-4.75-5.25-3.36-10.07-7.34-15.02-11.11-1.47-2.18-3-4.31-4.55-6.43-.59-1.02-1.19-2.04-1.76-3.07a78.63 78.63 0 0 1-1.87-3.8z"/><path fill="#1d0400" opacity=".31" d="M92.27 175.28c5.86-7 16.51-8.79 24.65-5.05 6.06 3.08 9.86 9.06 15.43 12.84-1.05 1.3-1.99 2.67-2.83 4.11-5.23-5.94-11.42-11.95-19.56-13.24-7.82-.7-15.76 3.27-20.06 9.81-2.19 4.51-2.4 9.66-3.08 14.55-.21-.28-.63-.83-.84-1.11-.11-1.31-.21-2.61-.3-3.92.42-6.43 1.72-13.34 6.59-17.99z"/><path fill="#310600" opacity=".54" d="M493.83 170.75c9.08-1.59 18.91 3.31 22.54 11.9 2.15 3.63.64 7.87.52 11.79-2.65-7.69-8.62-14.94-17.04-16.24-5.03-.69-11.42-.89-15.04 3.29-.37-.09-1.11-.26-1.47-.35-2.37 2.04-4.49 4.44-5.88 7.25-1.55 3.03-2.9 6.15-3.92 9.39l-.42.39c-.06-.79-.2-2.38-.26-3.17.68-3.81 1.73-7.58 3.06-11.21 2.83-5.63 7.57-10.56 13.75-12.37-.24 1.33-.46 2.66-.67 4 1.82-1.32 3.41-2.92 4.83-4.67m-14.54 11.49c.53.56.53.56 0 0z"/><g fill="#210400"><path opacity=".36" d="M642.26 169.4c.39.41 1.17 1.24 1.56 1.65.65 2.92 1.3 6.53 4.53 7.67 3.35 1.19 6.28 3.25 7.77 6.59.51 17.13-.26 34.33 1.55 51.39-1.07 9.03.46 18.91 6.59 25.97 6.16 6.95 15.79 9.31 24.72 9.88 7.7.19 15.56.56 23.04-1.71 3.85-.65 6.25-3.96 8.95-6.44-.46 2.07-.78 4.19-1.49 6.19-1.53 3.27-5.07 4.88-8.38 5.73-11.37 2.85-23.54 2.89-34.8-.49-8.17-2.54-15.62-8.74-17.98-17.18-3.75-13.86-3.1-28.36-3-42.57.07-5.07-1.1-10.04-1.52-15.07-.36-3.02-.48-6.18-1.75-8.99-1.87-3.75-6.98-4.45-8.61-8.38-1.95-4.47-2.1-9.51-1.18-14.24zM177.26 220.92l.25.21c.54 1.24 1.05 2.51 1.56 3.77.52 3.5 1.11 7.02 2.48 10.31 1.54 3.46 4.61 6.43 8.49 6.93 6.31.84 12.65-.28 18.94-.91 19.99-2.07 39.96-4.26 59.94-6.4 4.38-.56 9.23-.64 12.76-3.68 2-2.95 3.32-6.29 4.74-9.54.42 4.64-.27 9.69-3.5 13.28-3.01 3.31-7.77 3.61-11.92 4.19-20.03 1.99-40.03 4.22-60.03 6.39-1.01.14-1.99.38-2.96.69-.42.17-1.28.5-1.7.66-4.76-1.19-9.51 1.07-14.28.2-3.73-.57-8.03-1.61-10-5.17-2.2-4.15-3.37-8.76-4.51-13.3-.19-2.54-.14-5.09-.26-7.63z"/></g><path fill="#895a53" opacity=".93" d="M489.67 171.42c1.37-.27 2.76-.49 4.16-.67-1.42 1.75-3.01 3.35-4.83 4.67.21-1.34.43-2.67.67-4z"/><path fill="#330600" opacity=".56" d="M643.82 171.05c3.51 2.63 7.78 3.83 12.11 4.09.1 3.39.13 6.78.19 10.17-1.49-3.34-4.42-5.4-7.77-6.59-3.23-1.14-3.88-4.75-4.53-7.67z"/><path fill="#120200" opacity=".2" d="M709.9 172.7c.65-.58 1.29-1.18 1.91-1.8-.44 6.87-1.89 13.78-4.72 20.07-1.92 4.34-6.79 5.38-10.2 8.11.1-3.07.14-6.15.06-9.22 2.71-1.19 5.67-2 8.08-3.78 3.35-3.59 4.81-8.54 4.87-13.38z"/><g fill="#333"><path opacity=".21" d="M427.25 173.1c3.02-1.56.2 3.26 0 0zM404.48 263.08c1.37-.29 1.86.26 1.47 1.68-1.38.27-1.87-.28-1.47-1.68zM406.23 270.51c.55.51.55.51 0 0zM393.23 305.28c.57.48.57.48 0 0z"/></g><path fill="#250400" opacity=".4" d="M707.94 173.64c.49-.24 1.47-.71 1.96-.94-.06 4.84-1.52 9.79-4.87 13.38-2.41 1.78-5.37 2.59-8.08 3.78-.09-2.74.02-5.49.28-8.22 2.3-.4 4.72-.51 6.87-1.51 2.32-1.34 2.84-4.22 3.84-6.49z"/><path fill="#0a0100" opacity=".11" d="M89.9 183.75c4.3-6.54 12.24-10.51 20.06-9.81 8.14 1.29 14.33 7.3 19.56 13.24-.68 1.13-1.34 2.27-2.02 3.41-5.05-4.07-9.89-9.26-16.62-10.27-5.5-.73-11.44.31-16.05 3.5-4.91 3.71-4.84 10.42-7.1 15.65-.23-.29-.69-.88-.91-1.17.68-4.89.89-10.04 3.08-14.55z"/><path fill="#330600" opacity=".55" d="M696.19 175.87c3.99-.26 7.99-.82 11.75-2.23-1 2.27-1.52 5.15-3.84 6.49-2.15 1-4.57 1.11-6.87 1.51-.26 2.73-.37 5.48-.28 8.22.08 3.07.04 6.15-.06 9.22-.5-7.73-.72-15.47-.7-23.21z"/><path fill="#8a8a8a" opacity=".56" d="M365.12 178.91c-1.63-2.07 2.44-1.98.75.03l-.75-.03z"/><path fill="#a07873" opacity=".7" d="M351.2 178.59c.14-.14.41-.42.54-.57v.58l-.54-.01z"/><path fill="#5c5c5c" opacity=".38" d="M425.11 178.26c3.21.3-1.57 3.05 0 0z"/><path fill="#240400" opacity=".38" d="M484.81 181.49c3.62-4.18 10.01-3.98 15.04-3.29 8.42 1.3 14.39 8.55 17.04 16.24.03.36.1 1.08.13 1.43-1.12.39-2.24.77-3.36 1.14-2.7-9.77-13.8-14.64-23.29-13.17.31-.37.93-1.12 1.23-1.49-3 .24-5.45 2.06-7.73 3.86-1.85 1.36-3.67 2.79-5.15 4.56-1.88 2.23-2.77 5.23-5.18 7.01 1.02-3.24 2.37-6.36 3.92-9.39 2.63-2.09 5.33-4.16 7.35-6.9z"/><path fill="#d13b22" d="M323.66 193.14c.84-7.41 7.54-13.47 14.87-13.97 6.76 1.17 13.63.75 20.46.85 3.51.08 7.01-.32 10.48-.92 7.53.3 15.59-.7 22.54 2.9 3.87 1.84 6.49 5.55 7.79 9.55.18 6.07-1.86 12.76-7.57 15.77-10.95 5.25-23.46 3.61-35.21 3.93-7.75-.4-15.9.22-23.17-2.99-2.75-.88-5.48-1.88-7.85-3.58l-.43-.28c-1.1-3.65-2.67-7.37-1.91-11.26m15.93-10.18c-4.4-.36-7.79 3.17-10.52 6.17l.01.81c-2.4 4.87-1.05 11.35 3.64 14.35 6.01 3.68 13.37 2.34 20.06 2.84 3.35.75 6.8.28 10.18.79 5.97 1.07 12.04.32 18.06.5 1.46-.31 3.88.7 4.44-1.3 1.21-.16 2.42-.35 3.63-.58l-.67-.96c.53.01 1.58.02 2.1.02.81-.53 1.63-1.06 2.45-1.58 1.62-2.38 3.25-4.93 2.89-7.95.54-5.76-4.02-10.94-9.48-12.14-8.66-1.8-17.6-.56-26.37-1.32-6.8.34-13.69-.94-20.42.35z"/><path fill="#f75940" d="M338.53 179.17c4.18-.81 8.44-.5 12.67-.58l.54.01c1.48.03 2.97.07 4.46.1h.83c1.28.06 2.56.06 3.84.02.67.04 2 .11 2.66.14.4.02 1.19.04 1.59.05l.75.03 2.54.12 1.06.04c-3.47.6-6.97 1-10.48.92-6.83-.1-13.7.32-20.46-.85z"/><path fill="#6d4b45" opacity=".72" d="M483.34 181.14c.36.09 1.1.26 1.47.35-2.02 2.74-4.72 4.81-7.35 6.9 1.39-2.81 3.51-5.21 5.88-7.25z"/><path fill="#815750" opacity=".85" d="M479.29 182.24c.53.56.53.56 0 0z"/><path fill="#160300" opacity=".25" d="M582.96 193.03c.98-3.72.52-7.86 2.27-11.33.04 6.68-.33 13.34-.48 20.01-.99 8.05-.75 16.19-.94 24.28.2 11.06-1.6 22.29.96 33.2.9 4.3 2.72 8.98 6.84 11.14 5.41 2.96 12.65 3.85 17.96.2 3.84-3.56 5.56-8.77 6.46-13.8.52-.72 1.06-1.44 1.6-2.15.14 6.9-1.78 13.85-4.86 20-1.97 3.19-4.12 7.03-8.16 7.76-5.13.73-10.98.68-15.21-2.74-3.54-2.61-4.49-7.12-6.06-10.97-3.17-12.93-1.81-26.41-1.63-39.59.06-12.01-.15-24.07 1.25-36.01z"/><g fill="#e3eded"><path d="M329.07 189.13c2.73-3 6.12-6.53 10.52-6.17 4.49 1.34 9.14 2.13 13.52 3.85 7.19 2.58 15.12 1.43 22.01-1.49 3.6-1.84 7.72.79 11.26-1.39 5.46 1.2 10.02 6.38 9.48 12.14.36 3.02-1.27 5.57-2.89 7.95-.82.52-1.64 1.05-2.45 1.58-.52 0-1.57-.01-2.1-.02-14.13-.12-28.27-.01-42.4-.46-4.99-.73-11.18-.03-14.7-4.37-2.91-2.82-1.97-7.19-2.24-10.81l-.01-.81zM518.01 225.7c.52-.38 1.55-1.13 2.06-1.51.5 6.26.81 12.55-.04 18.79 1.52 2.08 4.58 2.28 6.86 3.25 5.74 1.71 11.4 3.97 17.41 4.51.6-3.11 1.48-6.15 2.44-9.16.75 6.73-1.7 13.24-4.14 19.39-3.58 9.46-11.33 17.04-20.5 21.13-7.04 3.26-14.74 4.7-22.4 5.45-18.15 1.39-37.48-.14-53.33-9.88-3.98-3.22-6.91-7.62-11.41-10.25-4.14-6.87-1-16.74 6.8-19.26 3.06.5 6.25.59 9.16 1.79 7.48 4.38 10.54 13.9 18.76 17.29 8.58 3.67 18.21 3.08 27.3 2.35l-1.43-1.27c7.32-.9 15.06-4.23 18.69-11.01 5.16-9.98 4.21-21.56 5.52-32.4l-1.75.79z"/></g><path fill="#cd3b23" d="M239.49 184.68c.16-.13.46-.37.61-.5 1.27 1.13 2.52 2.29 3.83 3.38 1.57.33 3.19.27 4.78.03 9.75-.89 19.47-2.84 29.29-2.54 9.2.14 16.51 9.55 14.59 18.53-.17.18-.51.56-.69.75-.44.2-1.34.62-1.78.82.63-3.31 1.33-6.88-.08-10.1-1.08-3.6-4.59-5.51-7.78-6.96-.5.28-1.51.84-2.02 1.12-2.4-.19-4.81-.37-7.22-.22-19.25 1.75-38.42 4.49-57.69 5.77 1.27-1.24 2.55-2.47 3.71-3.82l1.11 1.13c2.56-1.36 3.93-4.24 5.84-6.35-.66 1.4-1.26 2.84-1.86 4.28l1.28.28c2.8.93 5.76.84 8.64.39-.42-.21-1.25-.61-1.67-.81l-.94-.44 1.16-.06c.5-.03 1.49-.1 1.99-.13 2.83.74 5.75.97 8.64.44-1.1-.37-2.2-.72-3.3-1.05 1.29-.23 2.59-.49 3.88-.77-1.41-1.1-2.84-2.17-4.32-3.17z"/><path fill="#120200" opacity=".21" d="M490.37 183.84c9.49-1.47 20.59 3.4 23.29 13.17-.05.27-.14.82-.19 1.09.83-.23 2.47-.7 3.29-.93-1.01 2.85-2.12 5.66-3.43 8.39-2.16-3.38-3.8-7.3-7.12-9.75-1.48-1.15-3.02-2.22-4.49-3.37.02-.43.08-1.31.1-1.74-.81.55-1.61 1.12-2.39 1.7-6.97-1.81-15.49-1.25-20.59 4.42-1.96 2.43-4.51 5.62-2.94 8.88l.11.42c-1.05.96-2.06 1.96-3.07 2.95-.26-.83-.54-1.66-.72-2.5.12-3.86.26-7.73.64-11.57.06.79.2 2.38.26 3.17l.42-.39c2.41-1.78 3.3-4.78 5.18-7.01 1.48-1.77 3.3-3.2 5.15-4.56 2.19-.72 4.38-1.47 6.5-2.37m9.86 3.39c-1.46.65-1.58 1.32-.35 1.99 1.44-.65 1.56-1.32.35-1.99z"/><path fill="#e4eeee" d="M215.53 189.48c1.87-1.07 3.71-2.73 6.04-2.2-.85 1.21-1.69 2.43-2.53 3.66-1.16 1.35-2.44 2.58-3.71 3.82 19.27-1.28 38.44-4.02 57.69-5.77 2.41-.15 4.82.03 7.22.22 2.05 1.04 4.23 2.07 5.7 3.92 2.94 3.39 2.99 8.78.46 12.4-2.55 2.9-6.57 3.72-10.25 4.1-26.05 2.86-52.11 5.67-78.18 8.33-6.38 1-13.98-.34-17.29-6.54-.7-2.5-.94-5.14-.46-7.72.29.82.89 2.45 1.19 3.27.43-1.42.88-2.83 1.32-4.24 11.36-3.23 22.63-7.15 32.8-13.25z"/><path fill="#8d7c7a" opacity=".72" d="M500.23 187.23c1.21.67 1.09 1.34-.35 1.99-1.23-.67-1.11-1.34.35-1.99z"/><path fill="#ebf6f6" d="M615.55 201.62c.86-5.13.08-10.62 2.61-15.38.73 12.55-.16 25.14.06 37.7-.12 5.43.37 11.2-2.02 16.24-3.65 7.19-13.84 9.68-20.52 5.27-2.95-1.48-4.52-4.48-6.02-7.25-1.32-5.66-.71-11.51-.76-17.26.38-8.81.01-17.64.43-26.44 1.42 5.4.66 11 1.04 16.5.32-1.97.62-3.94.92-5.91 5.47-.12 10.91-.69 16.3-1.58 2.66-.5 5.59-.4 7.96-1.89z"/><path fill="#851606" d="M160.17 188.86c1.27 6.44 2.62 13.1 1.43 19.67-.79 2.44-1.76 4.83-2.87 7.14-.67 1.27-1.36 2.53-2.03 3.8-3.48 3.93-6.73 8.16-11.15 11.1-13.97 9.86-31.58 13.72-48.49 12.72-12.05-.66-24.46-5.09-32.6-14.3 4.63 1.6 8.22 5.18 12.83 6.85 9.34 3.68 19.7 5.02 29.64 3.43 12.42-1.12 24.43-5.69 34.71-12.7 10.01-6.62 17.99-17.74 18.45-30.01.18-2.56.19-5.14.08-7.7z"/><path fill="#ef4f36" d="M234.59 189.23c1.78-.2 3.56-.42 5.34-.61 1.1.33 2.2.68 3.3 1.05-2.89.53-5.81.3-8.64-.44z"/><g fill="#bc3924"><path d="M550.09 201.36c-.14-4.4-.14-8.8.16-13.19 1.56 4.31.85 8.85-.16 13.19zM549.11 230.34c-.18-4.39-.16-8.79.13-13.17 1.59 4.3.91 8.85-.13 13.17z"/></g><path fill="#f15238" d="M225.41 190.28c2.32-.14 4.64-.35 6.97-.42.42.2 1.25.6 1.67.81-2.88.45-5.84.54-8.64-.39z"/><path fill="#cacccb" d="M332.72 204.29c-4.69-3-6.04-9.48-3.64-14.35.27 3.62-.67 7.99 2.24 10.81 3.52 4.34 9.71 3.64 14.7 4.37 14.13.45 28.27.34 42.4.46l.67.96c-1.21.23-2.42.42-3.63.58-10.89.58-21.78-.57-32.68.01-6.69-.5-14.05.84-20.06-2.84z"/><path fill="#080000" opacity=".09" d="M478.84 196.82c5.1-5.67 13.62-6.23 20.59-4.42-.97.99-1.85 2.07-2.68 3.19 1.74-.9 3.41-1.95 4.97-3.15 1.47 1.15 3.01 2.22 4.49 3.37 3.32 2.45 4.96 6.37 7.12 9.75-.72 1-1.42 2.03-2.09 3.06-2.65-3.53-5.51-7.27-9.72-9-6.8-2.36-14.34-2.07-21.05.45.53.76 1.13 1.56 1.02 2.57-1.9.96-3.74 2.02-5.59 3.06-1.57-3.26.98-6.45 2.94-8.88m11.47-2.48c-1.9 1.44.34 3.44 1.77 1.78 1.97-1.22-.43-3.68-1.77-1.78z"/><path fill="#a42613" d="M392.23 207.32c5.71-3.01 7.75-9.7 7.57-15.77 2.82 7.06-1.98 13.36-4.09 19.77l-.35.52c.01-.49.04-1.46.05-1.94-5.33 3.23-10.92 6.77-17.36 6.86-11.7.14-23.4-.02-35.1-.01-4.86.14-9.21-2.36-13.75-3.68-.12-.21-.35-.62-.47-.82a63.23 63.23 0 0 1-2.73-7.57c2.37 1.7 5.1 2.7 7.85 3.58 7.27 3.21 15.42 2.59 23.17 2.99 11.75-.32 24.26 1.32 35.21-3.93z"/><path fill="#9c2311" d="M153.52 209.5c3.04-3.83 4.57-8.54 6.57-12.94-.46 12.27-8.44 23.39-18.45 30.01-10.28 7.01-22.29 11.58-34.71 12.7-9.94 1.59-20.3.25-29.64-3.43-4.61-1.67-8.2-5.25-12.83-6.85-2.73-2.61-4.87-5.72-6.8-8.94 4.95 3.77 9.77 7.75 15.02 11.11 8.13 4.06 17.37 5.22 26.37 4.75 10.29.41 20.29-2.52 29.72-6.35-.26-.22-.79-.68-1.05-.91 10.33-3.51 19.13-10.63 25.8-19.15z"/><path fill="#e7523a" d="M49.92 200.79c.94.75 1.88 1.52 2.8 2.31 1.56 3.48 3.31 6.9 5.73 9.86 2.92 4.5 7.03 8.16 11.8 10.61 5.25 3.33 11.28 5.1 17.34 6.27-1.21.53-2.42 1.05-3.63 1.57-5.41-1.71-10.9-3.45-15.72-6.51-8.13-5.22-14.54-12.88-18.45-21.7.03-.6.1-1.81.13-2.41z"/><g fill="#9d2210"><path d="M511.4 212.43c3.59-3.26 5.11-8.07 8.44-11.55-.73 2.02-1.5 4.04-2.5 5.96-3.2 5.1-7.44 9.68-12.98 12.24 2.04-2.53 4.65-4.47 7.04-6.65zM438.28 223.81c3.81 4.67 7.62 9.41 12.38 13.17 4.85 5.51 12.26 7.78 19.28 9 11.74 1.67 24.26.58 34.84-5.12 3.59-1.88 6.78-4.43 10.06-6.8-.18 2.62-.33 5.25-.67 7.86-9.16 7.15-20.52 11.48-32.16 11.76-5.48-.29-11.05-.74-16.28-2.5-1.46-.56-3.02-.59-4.55-.47-2.22-2.11-4.4-4.41-7.26-5.62-3.19-1.37-6.74-1.41-10.14-1.32 2.07-.21 4.15-.3 6.24-.37-5.41-5.51-9.07-12.41-11.74-19.59z"/></g><path fill="#2e0600" opacity=".5" d="M583.81 225.99c.19-8.09-.05-16.23.94-24.28.31 11.92-.42 23.84-.31 35.76-.84 7.1.48 15.06 5.99 20.08 7.25 6.06 18.66 5.51 25.6-.82-.9 5.03-2.62 10.24-6.46 13.8-5.31 3.65-12.55 2.76-17.96-.2-4.12-2.16-5.94-6.84-6.84-11.14-2.56-10.91-.76-22.14-.96-33.2z"/><path fill="#0f0200" opacity=".17" d="M49.48 206.75a78.63 78.63 0 0 0 1.87 3.8c-1.23 11.1 2.87 22.56 10.33 30.8 8.02 8.2 18.69 13.97 30.14 15.36 9.68 1.88 19.51.21 29.05-1.61 6.68-1.32 12.88-4.22 18.95-7.19 10.01-4.91 18.65-14.66 19.11-26.19.27-2.02.12-4.05-.2-6.05 1.11-2.31 2.08-4.7 2.87-7.14.59 12.62-1.89 25.63-8.62 36.46-4.02 5.36-9.54 9.53-15.6 12.33-7.26 3.8-15.15 6.6-23.33 7.46-12.45 2.09-25.57 1.28-37.33-3.52-8.17-3.94-15.39-10.04-20.12-17.85-6.71-10.87-8.19-24.15-7.12-36.66z"/><path fill="#c2796d" d="M352.78 207.13c10.9-.58 21.79.57 32.68-.01-.56 2-2.98.99-4.44 1.3-6.02-.18-12.09.57-18.06-.5-3.38-.51-6.83-.04-10.18-.79z"/><path fill="#861706" d="M378.05 216.76c6.44-.09 12.03-3.63 17.36-6.86-.01.48-.04 1.45-.05 1.94-.63.89-1.26 1.77-1.9 2.65-.82 1.04-1.65 2.06-2.51 3.05-.47.38-1.39 1.12-1.85 1.49-3.28 1.6-6.88 2.46-10.52 2.59-2.37-.17-4.75-.31-7.12-.34-2.97-.02-5.94.12-8.9.07-3.35-.23-6.7-.37-10.05-.23-3.78.02-7.56-.14-11.34-.14-1.98-.21-3.9-.75-5.73-1.47-1.25-.79-2.48-1.58-3.76-2.28-.84-1.39-1.69-2.76-2.48-4.16 4.54 1.32 8.89 3.82 13.75 3.68 11.7-.01 23.4.15 35.1.01z"/><path fill="#270400" opacity=".42" d="M51.35 210.55c.57 1.03 1.17 2.05 1.76 3.07.28 5.02 2.04 9.75 4.56 14.07 1.28 8.73 8.83 14.57 15.93 18.81 13.6 7.74 30.07 7.93 45.08 5.03 12.73-2.4 25.16-8.22 34-17.88 3.2-3.3 4.57-7.77 6.25-11.93-.46 11.53-9.1 21.28-19.11 26.19-6.07 2.97-12.27 5.87-18.95 7.19-9.54 1.82-19.37 3.49-29.05 1.61-11.45-1.39-22.12-7.16-30.14-15.36-7.46-8.24-11.56-19.7-10.33-30.8z"/><path fill="#871605" d="M274.54 218.42c5.39-.36 9.57-4.06 14.1-6.55.23 2.31-1.29 4.37-2.26 6.37-.05.08-.15.24-.21.32-1.02.7-2.04 1.42-3.09 2.07-5.35 2.58-11.35 2.95-17.15 3.56-22.95 2.43-45.9 4.87-68.84 7.36-5.39.69-10.83-.67-15.49-3.36-.85-1.1-1.71-2.18-2.53-3.29-.51-1.26-1.02-2.53-1.56-3.77 3.25 2.24 6.09 5.4 10.11 6.25 4.41 1.03 8.89-.22 13.27-.79 24.56-2.64 49.07-5.72 73.65-8.17z"/><path fill="#c9c7c5" d="M58.45 212.96c4.16 3.26 8.4 6.54 11.8 10.61-4.77-2.45-8.88-6.11-11.8-10.61z"/><path fill="#470900" opacity=".78" d="M53.11 213.62c1.55 2.12 3.08 4.25 4.55 6.43 1.93 3.22 4.07 6.33 6.8 8.94 8.14 9.21 20.55 13.64 32.6 14.3 16.91 1 34.52-2.86 48.49-12.72 4.42-2.94 7.67-7.17 11.15-11.1-.03 3.29-.77 6.63-3.05 9.13-8.99 10.61-22.25 16.75-35.75 19.2-14.55 2.55-30.46 2.4-43.6-5.14-6.85-3.35-11.45-9.62-16.63-14.97-2.52-4.32-4.28-9.05-4.56-14.07z"/><path fill="#982110" d="M551.6 242.01c1.53-9.28.3-18.68.92-28.02.31 5.99-.11 12 .48 17.98.64 4.67-.02 9.35-.56 13.99-.97 11.32-3.78 22.79-10.07 32.39-5.41 7.31-12.74 13.48-21.53 16.22-15.97 5.15-33.19 6.31-49.76 3.88-4.26-.56-8.32-2.58-12.7-1.89-8.86-3.21-17.26-8.59-22.31-16.74-.46-.99-.91-1.97-1.36-2.95l-.43-.9c4.03 2.04 7.04 5.53 10.91 7.82 11.12 6.38 24.07 9.18 36.84 8.88 6.76-.13 13.6.43 20.31-.69 11.02-1.44 22.26-4.46 31-11.65 11.36-9.37 17-23.94 18.26-38.32z"/><path fill="#d8d8d8" d="M390.95 217.54c.86-.99 1.69-2.01 2.51-3.05.05 3.56-2.4 9.26 2.22 10.81 4.91 2.15 9.73 4.58 14.9 6.06-1.89 2.8-5.09.6-7.7.69 1.33 1.9 3.73 3.19 4.32 5.55-2.71-1.61-4.2-4.5-6.48-6.57-1.85-1.47-4.46-.95-6.46-2.05-1.27-1.25-2.45-2.57-3.64-3.89.13-2.51.25-5.03.33-7.55z"/><path fill="#120200" opacity=".2" d="M432.54 228.78c-.47-4.54-.07-9.53 1.14-13.96l.97-.01c.19.49.56 1.49.75 1.98.1 4.44-.09 8.88.03 13.32.03 1.28.06 2.56.1 3.85-.14 3.96 1.44 7.66 2.84 11.29-1.48.91-2.9 1.9-4.27 2.95-.99-5.05-2.31-10.12-2.19-15.3.74-1.06 1.46-2.14 2.19-3.22-.39-.22-1.17-.68-1.56-.9z"/><path fill="#380800" opacity=".6" d="M156.7 219.47c.67-1.27 1.36-2.53 2.03-3.8.32 2 .47 4.03.2 6.05-1.68 4.16-3.05 8.63-6.25 11.93-8.84 9.66-21.27 15.48-34 17.88-15.01 2.9-31.48 2.71-45.08-5.03-7.1-4.24-14.65-10.08-15.93-18.81 5.18 5.35 9.78 11.62 16.63 14.97 13.14 7.54 29.05 7.69 43.6 5.14 13.5-2.45 26.76-8.59 35.75-19.2 2.28-2.5 3.02-5.84 3.05-9.13z"/><path fill="#210400" opacity=".36" d="M329.39 215.41c.76.6 1.52 1.21 2.29 1.82 3.09 2.65 6.55 4.9 9.26 7.98-1.54.32-3.08.61-4.62.89 0-.54.02-1.63.03-2.17l-.7 1.33c-4.68.14-7.2-5.69-6.26-9.85z"/><path fill="#310700" opacity=".53" d="M435.4 216.79c.93 2.35 1.91 4.68 2.88 7.02 2.67 7.18 6.33 14.08 11.74 19.59-2.09.07-4.17.16-6.24.37l-1.27.12-.38.03c-1.57-4.04-3.3-8.05-5.86-11.58.74-1.26 1.83-2.25 2.85-3.26-1.23.34-2.45.69-3.69 1.03-.12-4.44.07-8.88-.03-13.32z"/><path fill="#c8b9b6" d="M389.1 219.03c.46-.37 1.38-1.11 1.85-1.49-.08 2.52-.2 5.04-.33 7.55 1.19 1.32 2.37 2.64 3.64 3.89-1.39-.52-2.77-1.05-4.16-1.56-1.11-.4-2.22-.79-3.33-1.18.73-2.42 1.51-4.82 2.33-7.21z"/><path fill="#f95a41" d="M189.86 219.67c2.75-1.78 6.24-.4 9.27-.22-3.03.85-6.2.6-9.27.22z"/><path fill="#3f0800" opacity=".68" d="M283.08 220.63c1.05-.65 2.07-1.37 3.09-2.07l.18.57c.02.62.06 1.86.07 2.48-1.42 3.25-2.74 6.59-4.74 9.54-1.82-.55-3.72-.68-5.57-.25-8.97 1.64-18.09 1.96-27.11 3.2-13.24 1.25-26.45 2.88-39.69 4.14-6.17.57-12.38 2-18.59 1.13-3.42-.43-6.28-2.46-9.17-4.16-1.37-3.29-1.96-6.81-2.48-10.31.82 1.11 1.68 2.19 2.53 3.29 1.32 2.96 3.33 5.84 6.74 6.49 8.14 1.67 16.46.03 24.61-.78 16.5-1.74 33.01-3.44 49.5-5.29 5.76-.67 11.82-.54 17.2-2.95 2.1-.84 2.82-3.06 3.43-5.03z"/><path fill="#1c0400" opacity=".3" d="M335.44 219.51c1.83.72 3.75 1.26 5.73 1.47.85 2.87 3.85 4.16 5.9 6.07.92-.98 1.86-1.94 2.77-2.93 4.78.4 9.57.24 14.36.16 1.58.22 3.14.55 4.71.89.5-.24 1.51-.72 2.01-.96 3.81.33 7.66.29 11.44-.4 1.45.84 2.93 1.62 4.41 2.43-3.84 1.52-7.96 2.19-12.05 1.34v-2.24l-2.51-.12c.08.72.25 2.14.34 2.86-.41.2-1.22.6-1.63.8 1.64-1.86-2.24-2.07-.85-.04-6.82-1.28-14.08-1.92-20.84-.05-.67-.52-1.35-1.01-2.04-1.49l-1.44.74-.9.44c-1.64-1.28-3.18-2.67-4.66-4.12.12-.65.38-1.94.51-2.59-1.87-.46-3.69-1.13-5.26-2.26z"/><path fill="#a5817b" d="M378.58 221.62c3.64-.13 7.24-.99 10.52-2.59-.82 2.39-1.6 4.79-2.33 7.21-1.48-.81-2.96-1.59-4.41-2.43-1.26-.74-2.5-1.5-3.78-2.19z"/><path fill="#0c0200" opacity=".14" d="M286.35 219.13c1.06.78 2.13 1.55 3.2 2.34-1 6.67-1.32 13.66-4.24 19.85-1.42 3.32-5.05 4.75-8.39 5.24-9.28 1.38-18.65 1.96-27.96 3.11-4.69.41-9.7.2-14.04 2.24l-.72-.15c-1.42-.45-2.9-.51-4.37-.28-9.6 1.2-19.27 1.87-28.86 3.19-5.93.12-12.73 1.16-17.68-2.93-3.95-2.66-4.09-7.81-5.04-12.02-.51-3.67-2.2-7.51-.73-11.17 1.14 4.54 2.31 9.15 4.51 13.3 1.97 3.56 6.27 4.6 10 5.17 4.77.87 9.52-1.39 14.28-.2-1.59 3.01 3.2 4.59 4.53 2 1.66-1.78-1.46-2.79-2.83-2.66.97-.31 1.95-.55 2.96-.69 20-2.17 40-4.4 60.03-6.39 4.15-.58 8.91-.88 11.92-4.19 3.23-3.59 3.92-8.64 3.5-13.28-.01-.62-.05-1.86-.07-2.48m-46.06 26.14c-1.28.67-1.27 1.33.04 1.98 1.31-.72 1.29-1.38-.04-1.98z"/><path fill="#4a0a00" opacity=".8" d="M265.93 224.19c5.8-.61 11.8-.98 17.15-3.56-.61 1.97-1.33 4.19-3.43 5.03-5.38 2.41-11.44 2.28-17.2 2.95-16.49 1.85-33 3.55-49.5 5.29-8.15.81-16.47 2.45-24.61.78-3.41-.65-5.42-3.53-6.74-6.49 4.66 2.69 10.1 4.05 15.49 3.36 22.94-2.49 45.89-4.93 68.84-7.36z"/><path fill="#a27a74" d="M341.17 220.98c3.78 0 7.56.16 11.34.14l-2.67 3c-.91.99-1.85 1.95-2.77 2.93-2.05-1.91-5.05-3.2-5.9-6.07z"/><path fill="#2f0700" opacity=".51" d="M352.51 221.12c3.35-.14 6.7 0 10.05.23.41.73 1.23 2.19 1.64 2.93-4.79.08-9.58.24-14.36-.16l2.67-3z"/><path fill="#9a716a" d="M362.56 221.35c2.96.05 5.93-.09 8.9-.07-.14.73-.41 2.2-.54 2.93-.5.24-1.51.72-2.01.96-1.57-.34-3.13-.67-4.71-.89-.41-.74-1.23-2.2-1.64-2.93z"/><path fill="#2f0600" opacity=".52" d="M371.46 221.28c2.37.03 4.75.17 7.12.34 1.28.69 2.52 1.45 3.78 2.19-3.78.69-7.63.73-11.44.4.13-.73.4-2.2.54-2.93z"/><g fill="#505050"><path opacity=".33" d="M316.23 222.32c.56.54.56.54 0 0zM368.21 282.24c.55.55.55.55 0 0zM258.24 300.3c.54.55.54.55 0 0zM230.19 384.36c.54.56.54.56 0 0z"/></g><path fill="#b7321d" d="M696.2 225.3c8.19 1.13 16.27-1.1 24.44-1.07-.15.85-.29 1.7-.42 2.55-7.93-1.31-17.09 4.36-24.02-1.48z"/><path fill="#0b0100" opacity=".11" d="M386.77 226.24c1.11.39 2.22.78 3.33 1.18-6.48 5.4-15.28 4.9-23.18 4.6-4.2-.03-8.6-.8-12.59.91-1.71-1.38-3.4-2.77-5.1-4.14 6.76-1.87 14.02-1.23 20.84.05l.85.04c.41-.2 1.22-.6 1.63-.8.54-.13 1.63-.37 2.17-.5 4.09.85 8.21.18 12.05-1.34z"/><path fill="#d13a22" d="M518.01 225.7l1.75-.79c-1.31 10.84-.36 22.42-5.52 32.4-3.63 6.78-11.37 10.11-18.69 11.01-9.51.91-20.1 1.12-28.28-4.59-6.02-4.01-8.42-11.92-15.2-14.96-3.2-1.6-6.92-1.34-10.31-.61-7.8 2.52-10.94 12.39-6.8 19.26l.27.53c-2.17.85-.76 2.7.02 3.77 4.1 5.08 9.51 9 15.45 11.65 9.24 4.17 19.34 6.79 29.53 6.65-1.04.55-2.06 1.12-3.08 1.7 8.4-.01 16.8-.3 25.19.26-6.71 1.12-13.55.56-20.31.69-12.77.3-25.72-2.5-36.84-8.88-3.87-2.29-6.88-5.78-10.91-7.82-.16-.3-.47-.92-.62-1.23-1.96-3.77-4.19-7.48-4.94-11.73-.05-1.42-.04-2.83.07-4.24.5-4 2.23-7.9 5.31-10.57 1.37-1.05 2.79-2.04 4.27-2.95 1.22-.51 2.48-.95 3.76-1.33l.38-.03c4.33 1.06 9.15.95 12.92 3.65 4.43 2.86 6.7 7.9 10.79 11.16v-1.77c4.11 5 10.49 7.24 16.81 7.54 7.61.3 15.89.44 22.57-3.78 4.36-2.69 6.26-7.74 7.47-12.47.45-2.09.79-4.19 1.1-6.3.34-2.61.49-5.24.67-7.86-3.28 2.37-6.47 4.92-10.06 6.8-10.58 5.7-23.1 6.79-34.84 5.12-7.02-1.22-14.43-3.49-19.28-9 6.01 1.35 11.43 4.47 17.41 5.96 7.44 2.1 15.26 1.4 22.88 1.12-.25-.53-.76-1.57-1.01-2.1 11.01-1.47 21.19-7.61 28.07-16.26z"/><g fill="#4e4e4e"><path opacity=".33" d="M323.22 227.26c.52.58.52.58 0 0zM365.23 331.11c.54.55.54.55 0 0z"/></g><path fill="#857471" opacity=".68" d="M370.07 228.84c-1.39-2.03 2.49-1.82.85.04l-.85-.04z"/><g fill="#300600"><path opacity=".53" d="M276.11 230.9c1.85-.43 3.75-.3 5.57.25-3.53 3.04-8.38 3.12-12.76 3.68-19.98 2.14-39.95 4.33-59.94 6.4-6.29.63-12.63 1.75-18.94.91-3.88-.5-6.95-3.47-8.49-6.93 2.89 1.7 5.75 3.73 9.17 4.16 6.21.87 12.42-.56 18.59-1.13 13.24-1.26 26.45-2.89 39.69-4.14 9.02-1.24 18.14-1.56 27.11-3.2zM664.26 262.67c-6.13-7.06-7.66-16.94-6.59-25.97 1.22 4.93 2.01 10.23 5.29 14.32 3.47 5.11 9.02 8.38 14.78 10.3 8.49 2.49 17.46 2.53 26.21 1.93 6.22-.7 12.8-1.72 17.88-5.68-.15 2.29-.34 4.59-.86 6.83-2.7 2.48-5.1 5.79-8.95 6.44-7.48 2.27-15.34 1.9-23.04 1.71-8.93-.57-18.56-2.93-24.72-9.88z"/></g><g fill="#4b4b4b"><path opacity=".31" d="M296.39 232.11c3.04-1.56.22 3.25 0 0zM306.14 376.04c1.65-.5 2.22.06 1.72 1.67-1.64.48-2.21-.08-1.72-1.67z"/></g><path fill="#7e1304" d="M553 231.97l.73-.31.51 1.04c-.35 14.49-.52 29.51-6.71 42.94-1.06 2.1-2.26 4.11-3.44 6.15-4.21 4.56-8.38 9.43-14.03 12.26-9.42 5.27-20.29 7.22-30.96 7.78-13.69.68-27.92.13-40.72-5.27 4.38-.69 8.44 1.33 12.7 1.89 16.57 2.43 33.79 1.27 49.76-3.88 8.79-2.74 16.12-8.91 21.53-16.22 6.29-9.6 9.1-21.07 10.07-32.39.54-4.64 1.2-9.32.56-13.99z"/><path fill="#230400" opacity=".37" d="M436.27 232.34c2.56 3.53 4.29 7.54 5.86 11.58-1.28.38-2.54.82-3.76 1.33-1.4-3.63-2.98-7.33-2.84-11.29.19-.41.56-1.21.74-1.62z"/><path fill="#c1bdba" d="M546.74 241.58c.28-1.61.68-3.2 1.05-4.79.08 1.73.23 3.45.31 5.18-.4 6.48-1.92 12.86-4.18 18.93-3.74 10.03-11.71 18.42-21.63 22.49-12.56 5.53-26.55 5.73-40.03 5.7-13.49-1-27.41-3.78-38.61-11.8-3.51-2.38-6.44-5.57-8.42-9.34l-.27-.53c4.5 2.63 7.43 7.03 11.41 10.25 15.85 9.74 35.18 11.27 53.33 9.88 7.66-.75 15.36-2.19 22.4-5.45 9.17-4.09 16.92-11.67 20.5-21.13 2.44-6.15 4.89-12.66 4.14-19.39z"/><path fill="#921c0b" d="M584.44 237.47c.48 1.07.96 2.14 1.45 3.22.49 7.67 8.48 14.09 16.1 12.68 7.49-1.12 14.99-5.3 18.28-12.37.36-.29 1.09-.86 1.45-1.14-.57 5.02-.79 10.6-4.09 14.72-.54.71-1.08 1.43-1.6 2.15-6.94 6.33-18.35 6.88-25.6.82-5.51-5.02-6.83-12.98-5.99-20.08z"/><path fill="#2b2b2b" opacity=".18" d="M296.16 239.15c1.41-.5 1.87-.04 1.41 1.38-1.41.5-1.88.04-1.41-1.38z"/><path fill="#343434" opacity=".22" d="M420.28 241.19c1.45-.55 1.9-.12 1.35 1.28-1.45.54-1.9.11-1.35-1.28z"/><path fill="#b22c17" d="M585.89 240.69c4.03 6.32 11.46 11.27 19.2 10.1 6.19-1.19 10.68-5.78 15.18-9.79-3.29 7.07-10.79 11.25-18.28 12.37-7.62 1.41-15.61-5.01-16.1-12.68z"/><path fill="#ef5036" d="M442.51 243.89l1.27-.12c3.4-.09 6.95-.05 10.14 1.32 2.86 1.21 5.04 3.51 7.26 5.62.41.47 1.22 1.41 1.63 1.88 1.17 1.42 2.3 2.86 3.41 4.34v1.77c-4.09-3.26-6.36-8.3-10.79-11.16-3.77-2.7-8.59-2.59-12.92-3.65z"/><path fill="#d7c7c6" d="M206.31 246.82c.42-.16 1.28-.49 1.7-.66 1.37-.13 4.49.88 2.83 2.66-1.33 2.59-6.12 1.01-4.53-2z"/><path fill="#c0b6b3" d="M678.61 245.88c10.67 2.52 21.81 3.32 32.66 1.4 2.5-.52 5.05-.75 7.62-.64-4.02 1.98-8.5 2.56-12.91 2.84-9.17.34-18.94.52-27.37-3.6z"/><path fill="#320600" opacity=".55" d="M488.98 256.92c8.59-.67 17.25-3.34 24.09-8.7-1.21 4.73-3.11 9.78-7.47 12.47-6.68 4.22-14.96 4.08-22.57 3.78-6.32-.3-12.7-2.54-16.81-7.54-1.11-1.48-2.24-2.92-3.41-4.34 7.25 3.26 15.23 4.4 23.13 4.53-1.3 2.68 3.28 2.07 3.04-.2z"/><path fill="#383838" opacity=".23" d="M313.13 249.15c1.38-.21 1.96.38 1.74 1.76-1.39.21-1.97-.38-1.74-1.76z"/><g fill="#2c2c2c"><path opacity=".18" d="M378.16 249.12c2.95-1.64.3 3.27 0 0zM253.27 292.26c.5.56.5.56 0 0zM266.08 348.24c1.37-.58 1.84-.15 1.41 1.31-1.37.59-1.84.16-1.41-1.31zM277.24 371.16c1.59.07 1.4 2.89-.13 2.94-1.57-.19-1.3-2.75.13-2.94z"/></g><g fill="#f5f5f5"><path d="M328.37 249.76c6.87 3.71 12.64 9.15 19.2 13.36l.8-.1.52-.33c-.07-.28-.2-.85-.27-1.13l.11-2c.1 1.05.61 1.58 1.52 1.58.44-2.21 2.71-3.34 4.8-3.19 2.19-.27 3.68 1.9 5.83 1.82.22 1.48.48 2.95.79 4.42-1.52.63-2.95 1.63-4.61 1.82-2.52-.47-4.95-1.48-7.54-1.49l-1.53-.04c-6.58-4.85-13.37-9.45-19.62-14.72zM422.13 259.33c2.11-.83 4.44-1.52 6.66-.56a37.46 37.46 0 0 0-.07 4.24 42.039 42.039 0 0 1-6.59-3.68z"/></g><path fill="#555252" opacity=".36" d="M238.29 255.24c.53.57.53.57 0 0z"/><path fill="#919191" opacity=".6" d="M260.21 257.12c3.15-1.48.15 3.2 0 0z"/><path fill="#5b5b5b" opacity=".38" d="M348.43 257.07c3.06-1.5.16 3.26 0 0z"/><path fill="#8c5e57" opacity=".94" d="M485.94 257.12l3.04-.2c.24 2.27-4.34 2.88-3.04.2z"/><path fill="#1b1b1b" opacity=".11" d="M390.24 260.21c1.42-.52 1.89-.07 1.41 1.34-1.42.52-1.89.07-1.41-1.34z"/><path fill="#070000" opacity=".08" d="M656.32 262.62c1.82 4.75 2.73 10.02 6.09 14.02 2.57 3.03 5.48 6 9.24 7.51 10.06 3.78 21.02 4.2 31.61 3.17 4.68-.65 9.68-1.52 13.41-4.66 2.81-2.61 3.85-6.46 5.09-9.95 1.39 3.77-.99 7.3-2.54 10.59-1.96 4.07-6.1 6.59-10.34 7.69-4.52 1.43-9.32 1.03-13.91 2.03-3.36.71-6.62-.89-9.98-.81-10.6-.36-22-5.91-25.97-16.3-1.32-4.3-4.13-8.67-2.7-13.29z"/><path fill="#d0d0d0" d="M349.52 264.52c2.59.01 5.02 1.02 7.54 1.49 1.66-.19 3.09-1.19 4.61-1.82-.24 2.66-2.08 4.61-4.41 5.7l.32.8.51 1.25c-1.16-.49-1.73-1.76-2.9-2.15-2.9.84-4.77-2.2-5.93-4.3 1.95.82 3.29 3.33 5.59 3.38-1.36-1.84-3.71-2.75-5.33-4.35z"/><path fill="#202020" opacity=".13" d="M208.15 264.99c1.28.62 1.25 1.3-.09 2.05-1.27-.62-1.24-1.3.09-2.05z"/><g fill="#353535"><path opacity=".22" d="M263.24 269.25c1.63-.53 2.18.03 1.66 1.66-1.64.51-2.19-.04-1.66-1.66zM251.24 285.01c3.02-1.53.18 3.28 0 0z"/></g><path fill="#e9543c" d="M435.25 271.72c-.78-1.07-2.19-2.92-.02-3.77 1.98 3.77 4.91 6.96 8.42 9.34 11.2 8.02 25.12 10.8 38.61 11.8-.51.23-1.52.7-2.03.93-10.19.14-20.29-2.48-29.53-6.65-5.94-2.65-11.35-6.57-15.45-11.65z"/><path fill="#0b0100" opacity=".12" d="M583.34 268.63c1.57 3.85 2.52 8.36 6.06 10.97 4.23 3.42 10.08 3.47 15.21 2.74 4.04-.73 6.19-4.57 8.16-7.76.93 4.02-2.01 7.92-5.08 10.2-7.45 5.72-19.75 2.14-23.06-6.63-1.1-3.01-2.64-6.31-1.29-9.52z"/><g fill="#2a2a2a"><path opacity=".18" d="M204.12 270.27c3.28.24-1.59 2.98 0 0zM421.18 270.26c.51.53.51.53 0 0zM253.25 331.31c.51.54.51.54 0 0z"/></g><path fill="#606060" opacity=".4" d="M344.24 270.27c.53.6.53.6 0 0z"/><g fill="#555"><path opacity=".35" d="M240.26 272.26c.58.52.58.52 0 0zM210.23 314.3c.56.55.56.55 0 0zM267.3 378.12c.51.59.51.59 0 0z"/></g><g fill="#3e3e3e"><path opacity=".26" d="M255.21 272.26c.54.54.54.54 0 0zM322.12 309.41c3.25.19-1.54 3.03 0 0z"/></g><path fill="#080100" opacity=".09" d="M430.88 291.03c.85-5.43.71-11.13 2.78-16.29.15.31.46.93.62 1.23l.43.9c-.36 1.58-.73 3.16-1.02 4.76-1.3 5.44-.87 11.04-.85 16.57l.16 1.79c.7 7.53 7.48 12.09 13.43 15.58 9.69 5.17 20.61 8.11 31.6 8.35 3.98.14 7.93 1.07 11.94.75 7.9-.84 15.92-1.04 23.63-3.17 8.32-2.22 16.38-6.31 22.2-12.77 4.7-4.64 6.25-11.26 8.78-17.14.29 1.51.36 3.08-.23 4.54-2.31 7.42-6.37 14.11-10.64 20.54-6.26 7.43-15.07 12.59-24.57 14.61-17.64 3.99-36.47 3.95-53.75-1.7-8.83-3.19-17.61-8.1-22.72-16.25-4.16-6.71-2.48-14.91-1.79-22.3z"/><path fill="#848484" opacity=".55" d="M271.27 276.11c3.1-1.54.28 3.19 0 0z"/><g fill="#484848"><path opacity=".3" d="M377.1 276.19c3.24.14-1.48 3.09 0 0zM370.02 312.37c3.26-.04-1.37 3.14 0 0z"/></g><path fill="#130200" opacity=".21" d="M544.09 281.79c1.18-2.04 2.38-4.05 3.44-6.15.64 5.48-1.5 10.76-2.95 15.95-2.53 5.88-4.08 12.5-8.78 17.14-5.82 6.46-13.88 10.55-22.2 12.77-7.71 2.13-15.73 2.33-23.63 3.17-4.01.32-7.96-.61-11.94-.75-10.99-.24-21.91-3.18-31.6-8.35-5.95-3.49-12.73-8.05-13.43-15.58 2.77 1.35 2.42-3.16-.16-1.79-.02-5.53-.45-11.13.85-16.57.92 6.58-.72 14.83 5.05 19.61 13.96 12.31 33.25 15.46 51.25 15.79 15.12-.84 31.34-2.67 43.62-12.42 5.26-3.67 8.11-9.84 8.78-16.08.62-2.23 1.13-4.5 1.7-6.74z"/><path fill="#210400" opacity=".37" d="M433.69 281.63c.29-1.6.66-3.18 1.02-4.76.45.98.9 1.96 1.36 2.95.23 4.98-.05 11.19 4.78 14.2.3.53.89 1.59 1.19 2.11 1.58.99 3.2 1.95 4.96 2.62l-.15 1.29c.07.45.22 1.35.3 1.8.48.03 1.46.09 1.95.11 5.34 2.71 10.89 5.06 16.73 6.49 6.27 1.58 12.75 1.85 19.15 2.6 5.69.8 11.35-.56 17.03-.78 12.38-.77 24.85-4.71 34.32-12.96.88-.93 1.43-2.11 2.09-3.2 1.08-2.02 2.47-3.85 3.97-5.57-.67 6.24-3.52 12.41-8.78 16.08-12.28 9.75-28.5 11.58-43.62 12.42-18-.33-37.29-3.48-51.25-15.79-5.77-4.78-4.13-13.03-5.05-19.61z"/><path fill="#4a4a4a" opacity=".31" d="M230.23 279.18c.51.58.51.58 0 0z"/><path fill="#330600" opacity=".56" d="M436.07 279.82c5.05 8.15 13.45 13.53 22.31 16.74 12.8 5.4 27.03 5.95 40.72 5.27 10.67-.56 21.54-2.51 30.96-7.78 5.65-2.83 9.82-7.7 14.03-12.26-.57 2.24-1.08 4.51-1.7 6.74-1.5 1.72-2.89 3.55-3.97 5.57-4.79 2.57-9.01 6.1-14.06 8.21-10.78 4.69-22.74 5.91-34.4 5.59-9.82.37-19.68-.9-29.05-3.84-4.83-1.27-9.04-4.15-13.91-5.31-1.76-.67-3.38-1.63-4.96-2.62-.3-.52-.89-1.58-1.19-2.11-4.83-3.01-4.55-9.22-4.78-14.2z"/><g fill="#3a3a3a"><path opacity=".24" d="M343.12 287.13c3.25.3-1.63 2.98 0 0zM360.04 316.07c3.29.22-1.58 2.99 0 0z"/></g><path fill="#b5b5b5" opacity=".76" d="M219.12 288.27c.68.61.68.61 0 0z"/><path fill="#3c3c3c" opacity=".25" d="M386.27 289.21c.52.54.52.54 0 0z"/><path fill="#603b34" opacity=".7" d="M440.85 294.02c.3.53.89 1.59 1.19 2.11-.3-.52-.89-1.58-1.19-2.11z"/><path fill="#2c0600" opacity=".47" d="M524.36 302.31c5.05-2.11 9.27-5.64 14.06-8.21-.66 1.09-1.21 2.27-2.09 3.2-9.47 8.25-21.94 12.19-34.32 12.96-5.68.22-11.34 1.58-17.03.78-6.4-.75-12.88-1.02-19.15-2.6-5.84-1.43-11.39-3.78-16.73-6.49-.03-1.61-.78-2.25-2.25-1.91l.15-1.29c4.87 1.16 9.08 4.04 13.91 5.31 9.37 2.94 19.23 4.21 29.05 3.84 11.66.32 23.62-.9 34.4-5.59z"/><path fill="#373737" opacity=".23" d="M413.26 296.25c.54.52.54.52 0 0z"/><path fill="#515151" opacity=".34" d="M337.1 300.72c-.74-1.02.6-2.95 1.79-2.28.74.99-.63 2.91-1.79 2.28z"/><path fill="#60504e" opacity=".52" d="M432.84 298.2c2.58-1.37 2.93 3.14.16 1.79l-.16-1.79z"/><path fill="#8e8e8e" opacity=".59" d="M419.34 300.22c.59.62.59.62 0 0z"/><path fill="#4e2a24" opacity=".6" d="M446.85 300.04c1.47-.34 2.22.3 2.25 1.91-.49-.02-1.47-.08-1.95-.11-.08-.45-.23-1.35-.3-1.8z"/><path fill="#ececec" d="M310.83 301.95c.86-1.68 3.08-1.05 4.59-1.2 1.43.98 2.82 2.05 4.39 2.82-.36.61-1.1 1.81-1.46 2.41.71-.16 2.13-.49 2.84-.65-1.71 1.2-3.4 2.44-4.86 3.93-1.08-.11-2.17-.1-3.22-.38-1.39-.67-2.12-2.63-3.92-2.3.58-1.54.96-3.14 1.64-4.63z"/><g fill="#2a2a2a"><path opacity=".18" d="M326.12 301.43c3.3.01-1.42 3.07 0 0zM323.28 365.25c.49.55.49.55 0 0z"/></g><path fill="#888" opacity=".56" d="M188.14 303.78c.41-1.22 1.26-1.4 2.54-.53-.43 1.19-1.27 1.36-2.54.53z"/><g fill="#323232"><path opacity=".21" d="M418.3 303.25c.54.52.54.52 0 0zM323.25 353.22c.47.57.47.57 0 0zM284.27 378.1c2.94-1.67.34 3.26 0 0z"/></g><path fill="#5f5f5f" opacity=".4" d="M298.21 304.28c.54.58.54.58 0 0z"/><g fill="#545454"><path opacity=".35" d="M334.26 304.21c.52.57.52.57 0 0zM363.22 343.25c.53.57.53.57 0 0z"/></g><path fill="#d6d6d6" opacity=".89" d="M416.19 305.19c.69.68.69.68 0 0z"/><path fill="#4d4d4d" opacity=".32" d="M285.55 306.08c1.38-.39 1.85.14 1.41 1.56-1.37.36-1.84-.17-1.41-1.56z"/><path fill="#626262" opacity=".41" d="M263.02 308.04c2.92-1.7.36 3.29 0 0z"/><path fill="#6c6c6c" opacity=".45" d="M376.11 311.13c3.06-1.48.19 3.26 0 0z"/><g fill="#6f6f6f"><path opacity=".46" d="M347.24 313.25c.59.56.59.56 0 0zM319.26 348.1c.58.57.58.57 0 0z"/></g><path fill="#3c3c3c" opacity=".25" d="M320.37 314.11c1.42-.45 1.91.02 1.46 1.42-1.41.43-1.9-.04-1.46-1.42z"/><path fill="#272727" opacity=".16" d="M356.14 321.31c3.28.13-1.51 3.03 0 0z"/><path fill="#444" opacity=".28" d="M210.28 322.19c.54.54.54.54 0 0z"/><path fill="#515151" opacity=".34" d="M369.12 323.13c3.23.31-1.61 3.02 0 0z"/><g fill="#363636"><path opacity=".22" d="M340.26 327.29c.57.48.57.48 0 0zM423.21 337.17c2.99-1.56.25 3.28 0 0zM319.24 338.22c.51.55.51.55 0 0zM364.26 346.23c.51.55.51.55 0 0z"/></g><path fill="#3a3a3a" opacity=".24" d="M222.19 328.14c2.97-1.64.34 3.26 0 0z"/><g fill="#565656"><path opacity=".36" d="M352.3 328.31c1.41.04 1.14 2.64-.1 2.85-1.49-.15-.89-2.4.1-2.85zM364.28 348.26c.54.57.54.57 0 0z"/></g><path fill="#262626" opacity=".16" d="M395.24 331.18c1.26.71 1.21 1.39-.15 2.02-1.26-.71-1.21-1.39.15-2.02z"/><path fill="#9a9a9a" opacity=".64" d="M231.13 343.22c.61.63.61.63 0 0z"/><g fill="#3f3f3f"><path opacity=".26" d="M216.31 344.19c.52.55.52.55 0 0zM353.21 356.17c.55.52.55.52 0 0z"/></g><path fill="#373737" opacity=".23" d="M268.31 345.27c.54.52.54.52 0 0z"/><path fill="#dadada" d="M321.53 346.49c3.92.09 7.96.33 11.61-1.42-1 2.61-3.03 5.43-6.18 5.25-2.6.32-4.17-1.96-5.43-3.83z"/><path fill="#5a5a5a" opacity=".37" d="M256.27 353.28c.56.55.56.55 0 0z"/><path fill="#222" opacity=".15" d="M344.09 354.39c3.29.23-1.59 2.98 0 0z"/><path fill="#5d5d5d" opacity=".38" d="M364.26 354.26c.55.56.55.56 0 0z"/><path fill="#5e5e5e" opacity=".39" d="M325.37 356.29c.56.56.56.56 0 0z"/><path fill="#232323" opacity=".15" d="M390.16 356.41c3.3.25-1.62 2.95 0 0z"/><path fill="#ededed" d="M291.74 364.78c2.02-1.52 2.87-3.99 4.32-5.97-.28 1.79-1.24 3.35-2.09 4.93.5.44.68 1.02.54 1.76-2.87-1.15-1.03 3.47-1.03 4.68 2.46-.45.04 3.56-1.37 2.22l.66 1.82c-1.3 2.58-2.51 5.22-3.7 7.86.7-2.91 1.94-5.65 2.9-8.47l-2.41 1.78c-.28-1.88 1.46-2.94 2.5-4.18-.94-.54-1.88-1.06-2.82-1.57.73-1.66.91-3.73 2.5-4.86z"/><path fill="#444" opacity=".29" d="M303.32 361.23c.52.56.52.56 0 0z"/><g fill="#434343"><path opacity=".28" d="M356.24 361.19c.48.6.48.6 0 0zM299.26 370.25c.5.57.5.57 0 0z"/></g><path fill="#292929" opacity=".17" d="M386.14 361.07c1.63-.49 2.2.08 1.71 1.7-1.62.48-2.19-.09-1.71-1.7z"/><path fill="#adadad" opacity=".73" d="M311.15 365.12c1.63-.51 2.19.05 1.7 1.68-1.62.51-2.19-.06-1.7-1.68z"/><path fill="#282828" opacity=".16" d="M355.11 365.42c3.28.22-1.58 3 0 0z"/><path fill="#7a7a7a" opacity=".51" d="M422.14 366.13c3.25.17-1.41 3.1 0 0z"/><path fill="#484848" opacity=".3" d="M415.23 368.28c.54.55.54.55 0 0z"/><path fill="#646464" opacity=".42" d="M279.29 369.26c.54.58.54.58 0 0z"/><path fill="#424242" opacity=".28" d="M355.08 375.36c3.25.18-1.52 3.06 0 0z"/><path fill="#5c5c5c" opacity=".38" d="M350.26 377.22c.49.61.49.61 0 0z"/><path fill="#585858" opacity=".37" d="M204.08 392.1c3.26.24-1.6 3.02 0 0z"/><path fill="#212121" opacity=".13" d="M210.22 395.06c3.02-1.5.09 3.3 0 0z"/><path fill="#828282" opacity=".55" d="M354.22 396.21c.6.59.6.59 0 0z"/><path fill="#242424" opacity=".15" d="M279.01 400c.62-1.57 1.24-1.57 1.86 0h-1.86z"/></svg>
