<?xml version="1.0" encoding="UTF-8" standalone="no"?>
<!DOCTYPE svg PUBLIC "-//W3C//DTD SVG 1.1//EN" "http://www.w3.org/Graphics/SVG/1.1/DTD/svg11.dtd">
<!-- Created with Vectornator (http://vectornator.io/) -->
<svg height="100%" stroke-miterlimit="10" style="fill-rule:nonzero;clip-rule:evenodd;stroke-linecap:round;stroke-linejoin:round;" version="1.1" viewBox="0 0 512 512" width="100%" xml:space="preserve" xmlns="http://www.w3.org/2000/svg" xmlns:vectornator="http://vectornator.io" xmlns:xlink="http://www.w3.org/1999/xlink">
<defs/>
<g id="lay1" vectornator:layerName="lay1">
<path d="M405.158 155.469C407.771 146.829 415.328 143.39 421.242 145.897C419.82 146.682 418.323 147.064 416.816 147.054C411.325 146.435 405.622 153.508 406.223 161.702C406.14 163.335 406.912 164.597 407.505 165.842C407.585 166.009 407.748 166.324 407.829 166.491C411.306 176.79 423.398 176.408 426.857 165.882C428.523 162.82 427.573 158.588 429.086 155.397C429.121 160.174 429.763 165.919 427.105 169.669C421.699 179.078 410.126 177.83 405.988 167.406C404.353 163.882 404.773 159.46 405.158 155.469Z" fill="#ea5239" fill-rule="nonzero" opacity="1" stroke="none"/>
<path d="M421.242 145.897C424.459 147.324 427.746 150.061 429.077 154.728L429.086 155.397C427.573 158.588 428.523 162.82 426.857 165.882C427.29 163.221 427.399 160.435 426.852 157.812C426.083 153.998 423.816 151.317 421.398 149.701C419.92 148.673 418.389 147.756 416.816 147.054C418.323 147.064 419.82 146.682 421.242 145.897Z" fill="#e13e24" fill-rule="nonzero" opacity="1" stroke="none"/>
<g opacity="1">
<path d="M406.223 161.702C405.622 153.508 411.325 146.435 416.816 147.054C418.389 147.756 419.92 148.673 421.398 149.701C416.853 147.24 410.852 149.239 408.255 155.595C406.944 158.72 407.238 162.426 407.505 165.842C406.912 164.597 406.14 163.335 406.223 161.702ZM463.221 152.883C465.462 152.733 467.785 152.678 469.836 154.137C467.096 153.797 464.151 154.109 461.824 156.51C459.022 159.081 458.034 164.133 457.919 168.627C457.723 176.237 457.483 183.846 457.372 191.46C453.74 191.326 449.129 190.696 446.654 195.542C445.265 197.646 445.584 200.704 445.545 203.317C444.386 201.126 444.538 198.311 444.769 195.725C447.091 189.741 452.23 188.917 456.451 189.462C456.462 181.331 456.504 173.159 457.079 165.047C457.468 159.708 459.938 155.273 463.221 152.883ZM150.23 170.845C150.653 170.808 151.498 170.723 151.921 170.686C148.439 178.278 144.408 185.305 140.42 192.354C132.314 206.706 124.015 220.834 116.007 235.302C114.319 238.364 112.601 241.455 111.47 245.019C111.052 247.661 111.145 250.382 111.571 252.969C109.007 248.23 110.614 241.501 113.163 237.326C122.874 219.766 132.987 202.673 142.795 185.24C145.297 180.466 148.159 176.055 150.23 170.845Z" fill="#ac2915" fill-rule="nonzero" opacity="1" stroke="none"/>
<path d="M441.361 207.725C441.453 204.763 442.05 201.881 442.461 198.982C442.474 202.78 443.092 206.888 445.125 209.489C447.614 212.652 451.06 213.284 454.223 214.122C453.789 231.503 453.384 248.885 453.229 266.266C453.261 274.883 453.367 283.883 455.891 291.802C457.96 298.615 462.628 302.767 467.284 305.314C470.743 307.284 474.531 306.466 478.177 306.641C481.052 306.791 483.933 306.961 486.822 306.626C486.456 306.182 485.724 305.292 485.365 304.858C488.521 304.677 491.735 304.189 494.663 302.251C497.212 301.051 499.576 298.815 500.765 295.212L501.057 297.991C504.394 294.985 503.114 288.796 502.658 284.262C503.589 286.435 504.376 288.87 504.265 291.512C504.547 296.39 502.373 300.434 500.835 304.499C493.358 311.151 484.467 313.752 475.829 313.046C469.589 313.143 462.863 311.772 458.035 305.73C454.972 302.167 454.567 296.111 453.391 291.048C452.337 282.201 451.71 273.162 452.34 264.146C452.481 249.225 453.009 234.307 453.143 219.386C450.624 219.28 447.857 219.855 445.668 217.743C443.163 215.65 442.291 211.4 441.361 207.725Z" fill="#ac2915" fill-rule="nonzero" opacity="1" stroke="none"/>
</g>
<path d="M462.853 151.512C466.311 149.53 470.278 150.189 473.582 152.319C474.113 152.749 474.658 153.169 475.218 153.579C476.905 155.541 478.74 157.549 479.495 160.621C479.409 161.133 479.244 162.177 479.157 162.689C478.312 166.521 478.999 170.476 478.965 174.376C478.955 179.965 478.595 185.553 478.771 191.138C478.515 191.582 477.99 192.47 477.727 192.914C477.417 183.557 478.181 174.092 477.34 164.789C476.836 159.183 473.245 155.859 469.836 154.137C467.785 152.678 465.462 152.733 463.221 152.883C463.221 152.883 462.853 151.512 462.853 151.512Z" fill="#e44127" fill-rule="nonzero" opacity="1" stroke="none"/>
<path d="M455.711 162.17C456.638 157.23 459.532 153.221 462.853 151.512L463.221 152.883C459.938 155.273 457.468 159.708 457.079 165.047C456.504 173.159 456.462 181.331 456.451 189.462C452.23 188.917 447.091 189.741 444.769 195.725C444.311 197.778 443.986 199.888 443.668 201.987C443.493 200.396 443.288 198.804 443.112 197.213L442.957 195.643C444.937 190.625 448.824 187.597 452.771 187.732C453.293 187.729 454.336 187.713 454.858 187.71C455.052 179.193 455.082 170.661 455.711 162.17Z" fill="#e54b33" fill-rule="nonzero" opacity="0.95" stroke="none"/>
<path d="M133.692 150.879C143.346 149.818 152.981 148.663 162.624 147.437C165.618 147.179 168.62 147.373 171.592 147.876C174.387 149.319 177.398 151.192 178.643 155.383L178.347 156.217C176.946 158.99 177.314 162.605 176.18 165.541C176.565 161.828 176.751 157.573 174.87 154.647C172.438 151.26 168.774 150.971 165.55 151.057C159.634 151.319 153.745 152.385 147.847 153.028C137.517 154.272 127.189 155.434 116.87 156.782C115.869 156.563 114.885 156.251 113.901 155.94C113.72 155.512 113.373 154.656 113.2 154.238L113.12 154.029C119.487 151.981 126.054 152.174 132.502 151.045C132.502 151.045 133.692 150.879 133.692 150.879Z" fill="#d93e25" fill-rule="nonzero" opacity="1" stroke="none"/>
<path d="M479.495 160.621C480.413 163.741 480.701 167.158 480.783 170.537C480.727 176.742 480.82 182.952 480.607 189.152C486.434 189 493.853 189.633 496.559 198.392C496.546 199.112 496.533 200.543 496.52 201.263C495.56 202.846 494.627 204.482 493.869 206.278C494.546 202.348 493.777 197.773 491.302 195.609C487.252 192.095 482.251 193.356 477.727 192.914C477.99 192.47 478.515 191.582 478.771 191.138C479.829 187.859 479.457 184.151 479.664 180.669C479.944 174.646 479.515 168.661 479.157 162.689C479.244 162.177 479.409 161.133 479.495 160.621Z" fill="#de3e26" fill-rule="nonzero" opacity="1" stroke="none"/>
<path d="M452.771 187.732C452.456 179.033 454.455 170.609 455.711 162.17C455.082 170.661 455.052 179.193 454.858 187.71C454.336 187.713 453.293 187.729 452.771 187.732Z" fill="#ae2814" fill-rule="nonzero" opacity="1" stroke="none"/>
<path d="M478.965 174.376C478.999 170.476 478.312 166.521 479.157 162.689C479.515 168.661 479.944 174.646 479.664 180.669C479.457 184.151 479.829 187.859 478.771 191.138C478.595 185.553 478.955 179.965 478.965 174.376Z" fill="#fa553b" fill-rule="nonzero" opacity="1" stroke="none"/>
<path d="M178.643 155.383C180.462 160.684 179.244 166.572 178.097 171.937C177.846 172.958 177.631 174 177.338 174.999C175.763 177.344 174.298 179.847 173.007 182.531C164.236 198.681 155.096 214.459 146.644 230.961C147.097 231.11 147.995 231.429 148.448 231.578L149.106 232.053C147.441 232.068 145.779 232.228 144.119 232.316L143.213 231.997C143.684 230.53 144.155 229.064 144.667 227.641C153.536 211.328 162.695 195.345 171.55 179.022C173.698 175.112 176.119 171.417 177.704 166.952C178.9 163.606 178.431 159.771 178.347 156.217C178.347 156.217 178.643 155.383 178.643 155.383Z" fill="#9a2715" fill-rule="nonzero" opacity="1" stroke="none"/>
<path d="M107.069 162.738C108.069 158.768 110.372 155.449 113.2 154.238C113.373 154.656 113.72 155.512 113.901 155.94C110.756 157.49 107.829 162.393 109.447 167.255C110.056 169.942 110.784 173.456 113.111 173.772C116.945 174.613 120.876 174.304 124.737 173.694C130.961 172.917 137.181 172.244 143.403 171.498C145.678 171.153 147.949 170.942 150.23 170.845C148.159 176.055 145.297 180.466 142.795 185.24C132.987 202.673 122.874 219.766 113.163 237.326C110.614 241.501 109.007 248.23 111.571 252.969C113.751 259.425 119.136 260.988 123.719 260.114C142.404 258.012 161.086 255.755 179.763 253.446C182.4 253.144 185.294 252.399 187.199 249.478C189.111 245.817 189.234 240.273 187.236 236.716C186.241 234.778 184.716 233.665 183.283 232.546C183.655 232.271 184.393 231.719 184.758 231.443C186.992 233.012 189.441 235.061 190.106 238.79C191.017 242.135 190.412 245.789 189.865 249.178C187.121 254.427 182.43 256.079 178.151 256.592C160.948 258.817 143.75 261.135 126.547 263.381C122.276 263.843 117.704 264.583 113.779 261.701C111.077 259.767 109.444 255.903 108.276 252.054C107.682 247.824 108.288 242.883 110.231 239.408C115.441 229.127 121.239 219.494 126.83 209.628C127.896 207.821 128.948 205.994 129.98 204.145C130.499 203.237 131.018 202.338 131.537 201.44C132.715 199.462 133.865 197.453 135.009 195.433C136.359 193.204 137.66 190.922 138.99 188.662C140.259 186.492 141.487 184.279 142.715 182.067C144.107 179.602 145.458 177.085 146.739 174.504C136.986 175.058 127.278 177.033 117.535 177.968C114.798 177.978 111.924 177.551 109.524 175.565C106.794 172.61 106.956 167.181 107.069 162.738M117.88 261.676C120.06 262.141 122.315 262.475 124.503 261.675C122.346 261.416 119.895 259.912 117.88 261.676Z" fill="#dd3f26" fill-rule="nonzero" opacity="1" stroke="none"/>
<path d="M176.18 165.541C177.314 162.605 176.946 158.99 178.347 156.217C178.431 159.771 178.9 163.606 177.704 166.952C176.119 171.417 173.698 175.112 171.55 179.022C162.695 195.345 153.536 211.328 144.667 227.641C143.242 229.764 142.179 232.692 140.312 234.029L139.553 232.84C140.189 231.595 140.824 230.361 141.466 229.138C151.225 211.672 160.853 194.058 170.598 176.581C172.579 173.036 174.727 169.609 176.18 165.541ZM406.974 187.09C410.755 183.287 415.504 182.131 419.924 183.691C421.77 184.577 423.488 185.974 424.957 187.815C427.81 191.453 428.974 197.216 428.79 202.624C428.057 226.964 427.382 251.295 426.677 275.636C426.49 281.414 426.523 287.262 425.511 292.92C425.246 293.199 424.708 293.768 424.442 294.057C421.112 298.072 417.773 302.683 413.32 303.756C407.761 304.772 402.604 299.501 399.914 292.904C399.596 291.782 399.285 290.67 398.974 289.558C399.246 277.297 400.119 265.057 400.249 252.791C400.552 245.936 401.012 239.096 401.181 232.226C401.649 224.089 401.769 215.931 402.195 207.793C402.372 203.095 402.475 198.27 403.604 193.78C404.509 191.35 405.576 189.009 406.974 187.09M405.485 194.698C404.924 199.064 404.291 203.448 404.292 207.895C403.727 225.395 403.282 242.91 402.495 260.403C402.02 268.261 401.53 276.139 401.504 284.023C401.692 286.181 401.459 288.849 402.678 290.435C403.667 293.32 404.699 296.443 406.761 298.037C411.399 302.734 418.745 300.42 421.562 293.115C423.416 287.99 423.236 282.045 423.482 276.464C423.695 263.542 424.701 250.617 424.55 237.694C425.257 225.705 425.361 213.593 425.778 201.554C426.12 195.091 423.219 188.878 418.896 187.146C417.206 185.565 414.991 185.829 413.063 185.28C409.622 186.202 406.463 189.718 405.485 194.698Z" fill="#df4026" fill-rule="nonzero" opacity="1" stroke="none"/>
<path d="M109.448 167.255C107.829 162.393 110.756 157.49 113.901 155.94C114.885 156.251 115.869 156.563 116.87 156.782C113.003 157.103 109.303 161.342 109.448 167.255ZM405.485 194.698C406.463 189.718 409.622 186.202 413.063 185.28C414.991 185.829 417.206 185.565 418.896 187.146C415.674 186.151 411.995 186.396 409.311 189.578C406.741 192.486 405.646 197.287 405.552 201.813C405.1 216.373 404.204 230.918 403.73 245.488C403.171 254.527 403.175 263.617 402.644 272.667C402.51 278.581 401.903 284.582 402.678 290.435C401.459 288.849 401.692 286.181 401.504 284.023C401.53 276.139 402.02 268.261 402.495 260.403C403.282 242.91 403.727 225.395 404.292 207.895C404.291 203.448 404.924 199.064 405.485 194.698Z" fill="#a22613" fill-rule="nonzero" opacity="1" stroke="none"/>
<path d="M41.6698 162.82C50.3247 158.214 59.9024 156.059 68.9594 158.364C64.896 158.555 60.8423 158.16 56.7879 158.29C58.9785 159.631 61.4317 159.035 63.7534 159.289C66.0329 159.52 68.3292 159.413 70.5846 158.739C72.0073 158.705 73.3698 159.523 74.7527 159.879L74.732 160.352C74.8636 161.993 75.2178 162.097 75.8157 160.677C76.2764 160.805 77.19 161.084 77.6507 161.213C84.9037 165.391 92.4088 172.492 94.6399 183.89C94.5305 187.459 94.6288 191.507 92.8323 194.369C90.5075 198.212 87.5689 202.034 83.9101 202.568C80.791 202.72 77.2864 201.859 75.2341 198.187C72.4857 193.626 69.4953 189.283 65.8703 186.144C63.6238 183.762 60.6653 184.289 58.0258 184.158C52.6331 184.119 47.0374 187.923 44.288 194.87C39.9931 205.388 39.5705 218.642 42.3565 229.874C42.7316 231.493 43.1715 233.093 43.6918 234.634C42.288 237.499 44.6906 239.918 45.9321 241.72C48.3377 244.283 51.3986 247.66 54.5628 245.688C59.0113 245.768 63.8106 245.323 67.574 241.386C70.5703 238.791 72.4319 234.407 74.2296 230.258C74.7485 229.102 75.2532 227.946 75.7718 226.801C76.4137 225.34 77.125 223.954 77.9127 222.643C78.5833 221.677 79.2878 220.775 80.0269 219.915C83.6849 216.416 88.5713 215.923 92.3067 219.2C95.0335 221.022 96.9013 225.152 97.5977 229.272C97.6008 231.907 97.5176 234.56 97.3137 237.188C95.7567 241.665 94.5259 246.471 92.2434 250.336C87.2319 258.935 80.7415 266.044 73.2654 269.402C63.1753 273.733 52.0213 276.297 41.9519 271.179C42.8308 270.673 43.7097 270.168 44.5889 269.652C52.9863 271.791 61.7209 270.636 69.9782 267.438C79.9583 263.207 89.8871 254.033 93.866 239.583C94.3971 236.255 95.0477 232.747 94.4006 229.4C93.1167 223.592 88.6373 219.353 84.3824 221.247C80.5648 222.836 78.4896 228.19 76.5861 232.788C73.7574 240.258 69.0314 246.623 63.1873 248.627C57.0598 250.797 49.8699 250.151 45.0557 243.883C39.9694 237.637 38.2 227.582 37.9821 218.228C37.7643 207.875 39.4022 196.588 44.6938 188.934C49.6782 181.281 57.6705 179.103 64.4951 181.28C68.7449 183.308 72.3353 187.404 75.1448 192.327C77.0152 195.118 78.8202 199.194 81.9167 198.836C85.6259 199.786 89.2462 196.605 91.1399 192.099C93.002 187.448 91.2347 182.056 89.3973 178.112C84.4814 168.413 76.2177 163.603 68.1383 161.836C57.4031 160.009 45.9788 162.534 36.4696 170.528C33.028 173.704 29.709 177.338 27.209 182.06C21.5352 191.585 18.7329 204.119 18.3231 216.427C17.9677 224.845 18.5231 233.387 20.4894 241.308C19.8561 240.473 19.2079 239.658 18.5591 238.864C18.52 239.481 18.4344 240.723 18.3953 241.34C14.8673 229.578 16.0535 216.35 16.7469 203.867C16.8655 202.718 17.0053 201.58 17.1665 200.443C17.9436 196.506 19.3606 192.931 20.4471 189.17C25.0231 177.066 32.7367 167.663 41.6698 162.82Z" fill="#d93c23" fill-rule="nonzero" opacity="1" stroke="none"/>
<path d="M56.7879 158.29C60.8423 158.16 64.896 158.555 68.9594 158.364C69.3638 158.46 70.1802 158.642 70.5846 158.739C68.3292 159.413 66.0329 159.52 63.7534 159.289C61.4317 159.035 58.9785 159.631 56.7879 158.29Z" fill="#f5563c" fill-rule="nonzero" opacity="1" stroke="none"/>
<path d="M74.732 160.352L75.8157 160.677C75.2178 162.097 74.8636 161.993 74.732 160.352Z" fill="#ff6249" fill-rule="nonzero" opacity="1" stroke="none"/>
<path d="M304.222 193.015C312.854 180.482 325.875 176.108 337.619 178.638C338.282 179.165 338.998 179.374 339.773 179.257C344.139 180.198 348.303 182.728 351.923 186.289L352.795 187.276C353.468 187.988 354.126 188.71 354.775 189.494C355.396 190.277 356.015 191.091 356.627 191.914C357.224 190.298 357.827 188.692 358.514 187.151C360.782 183.306 363.975 180.337 367.525 180.108C372.722 179.245 378.858 182.737 380.08 190.705C380.704 196.12 380.303 201.623 380.133 207.084C379.629 219.419 379.511 231.787 378.387 244.07C378.223 250.797 377.356 257.623 378.266 264.272C378.146 270.444 378.165 276.776 377.227 282.837L376.697 283.139C376.452 276.975 376.928 270.805 376.884 264.637C376.166 274.227 376.767 283.923 375.402 293.429C374.079 308.186 369.624 323.032 361.24 332.392C354.791 339.574 346.679 342.407 338.772 343.62C332.8 342.841 326.797 342.935 320.801 342.741C321.546 342.17 322.291 341.608 323.049 341.068C323.42 340.844 324.155 340.385 324.526 340.161C334.146 340.519 344.136 340.653 353.264 335.271C360.464 331.326 366.399 322.892 369.364 312.668C371.156 306.481 372.428 299.957 372.905 293.303C373.29 289.333 373.753 285.375 373.968 281.368C374.838 276.951 375.457 272.288 374.449 267.828C374.74 262.403 375.309 257.018 375.521 251.59C376.37 247.152 377.011 242.5 376.024 238.03C376.413 231.456 377.1 224.912 377.125 218.314C377.138 209.627 378.712 200.808 377.315 192.227C376.845 188.423 374.803 185.389 372.215 184.467C368.908 183.439 364.984 183.521 362.358 187.138C359.314 190.904 359.16 197.024 358.816 202.303C354.689 193.743 348.826 186.667 341.757 183.792C333.979 180.748 325.512 181.057 317.832 185.016C309.155 189.652 302.009 199.712 298.274 211.876C294.065 225.619 293.063 241.148 294.802 255.752C296.516 269.017 302.083 281.404 310.598 287.407C316.983 291.741 324.338 293.34 331.395 291.881C331.558 292.432 331.892 293.514 332.054 294.065C326.608 294.168 321.006 294.698 315.758 292.358C311.533 290.681 307.757 287.341 303.507 285.807C300.221 281.825 297.641 276.858 295.06 271.963C294.436 269.533 293.805 267.113 293.211 264.674C293.09 264.165 292.855 263.128 292.734 262.62C290.83 254.032 290.663 244.886 291.027 235.922C290.933 235.703 290.753 235.264 290.659 235.035L291.289 232.997C292.525 218.278 296.364 203.236 304.222 193.015Z" fill="#dc3e25" fill-rule="nonzero" opacity="1" stroke="none"/>
<path d="M443.668 201.987C443.986 199.888 444.311 197.778 444.769 195.725C444.538 198.311 444.386 201.126 445.545 203.317C445.924 204.287 446.362 205.218 446.822 206.13C448.091 207.974 449.674 209.325 451.418 210.043C453.08 210.614 454.799 210.714 456.51 210.834C456.603 228.284 456.068 245.734 455.603 263.186C455.513 268.577 455.382 274.142 456.506 279.316C456.722 280.754 456.923 282.213 457.139 283.661C457.879 290.984 461.325 297.38 465.937 300.492C471.832 304.933 478.81 304.985 485.365 304.858C485.724 305.292 486.456 306.182 486.822 306.626C483.933 306.961 481.052 306.791 478.177 306.641C474.531 306.466 470.743 307.284 467.284 305.314C462.628 302.767 457.96 298.615 455.891 291.802C453.367 283.883 453.261 274.883 453.229 266.266C453.384 248.885 453.789 231.503 454.223 214.122C451.06 213.284 447.614 212.652 445.125 209.489C443.092 206.888 442.474 202.78 442.461 198.982C442.601 198.359 442.873 197.102 443.012 196.468L443.112 197.213C443.288 198.804 443.493 200.396 443.668 201.987Z" fill="#e13f25" fill-rule="nonzero" opacity="1" stroke="none"/>
<path d="M493.869 206.278C494.627 204.482 495.56 202.846 496.52 201.263C496.532 204.588 496.166 208.394 494.147 210.539C490.04 214.722 484.905 214.187 480.219 215.15C479.334 216.633 479.845 218.987 479.721 220.805C480.408 234.508 478.892 248.281 479.635 261.966C479.737 265.387 479.439 268.825 479.706 272.231L480.213 273.473C480.775 275.057 481.321 276.681 482.029 278.177C486.942 279.734 491.964 276.271 496.867 277.92C499.086 279.261 501.543 281.033 502.658 284.262C503.114 288.796 504.394 294.985 501.057 297.991L500.765 295.212C500.901 292.468 501.423 289.459 500.387 286.964C499.551 284.486 497.804 283.119 496.197 281.86C496.315 280.989 496.44 280.118 496.572 279.248C490.742 279.019 484.909 281.116 479.097 279.755C477.6 276.647 477.109 272.853 477.102 269.106C477.106 250.773 477.431 232.441 477.406 214.107C477.415 213.531 477.42 212.368 477.429 211.792C481.544 212.303 485.733 212.219 489.812 210.988C491.267 210.554 492.437 209.112 493.411 207.549C493.527 207.224 493.752 206.593 493.869 206.278ZM45.9321 241.72C44.6906 239.918 42.288 237.499 43.6918 234.634L44.4017 236.038C44.5433 236.331 44.8269 236.906 44.9685 237.199C45.117 237.503 45.4279 238.121 45.5835 238.425C47.7222 242.574 51.1821 244.493 54.5628 245.688C51.3986 247.66 48.3377 244.283 45.9321 241.72Z" fill="#ea4026" fill-rule="nonzero" opacity="1" stroke="none"/>
<path d="M327.712 203.983C330.658 202.406 333.751 201.44 336.89 201.331C342.792 201.542 348.574 205.444 352.049 212.335C356.916 223.494 357.063 238.044 353.946 250.362C351.467 253.86 350.24 258.77 347.582 262.035C345.812 264.219 343.892 266.15 342.361 268.703C338.292 271.827 333.547 271.903 329.136 270.991C323.427 269.52 318.421 263.709 316.308 255.948C313.966 247.675 314.547 238.348 315.539 229.663C316.839 219.188 320.892 208.908 327.712 203.983M335.561 205.084C332.385 205.45 329.01 206.066 326.41 209.045C320.618 215.219 318.317 225.949 317.742 235.801C317.712 240.35 317.015 245.236 318.328 249.511C318.377 251.551 318.768 253.592 319.791 255.058C319.895 255.926 320.07 256.786 320.231 257.646C322.822 262.974 326.906 266.808 331.492 267.314C337.461 268.443 343.687 264.826 347.58 258.113C348.088 257.07 348.618 256.028 349.162 255.017C350.177 252.241 351.052 249.379 351.857 246.472C351.265 246.689 350.08 247.133 349.481 247.349C349.525 247.073 349.605 246.509 349.649 246.233C350.459 245.879 351.27 245.516 352.081 245.142C352.07 244.781 352.041 244.039 352.03 243.668C353.876 238.584 353.137 232.455 352.477 227.08C352.651 214.507 344.056 204.302 335.561 205.084Z" fill="#da3f26" fill-rule="nonzero" opacity="1" stroke="none"/>
<path d="M18.0694 244.983C14.661 232.041 14.1618 217.294 16.7469 203.867C16.0535 216.35 14.8673 229.578 18.3953 241.34C20.9261 250.504 25.2753 258.537 30.9241 264.102C34.274 267.366 38.1411 269.289 41.9519 271.179C52.0213 276.297 63.1753 273.733 73.2654 269.402C73.4442 269.645 73.8089 270.131 73.988 270.364C67.1448 274.073 59.9213 276.844 52.5893 276.172C46.152 276.437 39.5914 275.02 33.9085 270.648C30.2605 267.065 26.9377 262.855 23.5158 258.858C22.5309 256.581 21.5016 254.353 20.4578 252.135C20.0668 251.072 19.6686 250.009 19.2921 248.936C18.8598 247.635 18.4521 246.317 18.0694 244.983Z" fill="#b72f1a" fill-rule="nonzero" opacity="1" stroke="none"/>
<path d="M234.241 223.347C234.345 223.207 234.546 222.925 234.644 222.774L234.626 223.371C234.626 223.371 234.241 223.347 234.241 223.347Z" fill="#a07873" fill-rule="nonzero" opacity="0.7" stroke="none"/>
<path d="M214.157 237.641C214.975 230.042 219.935 223.973 225.181 223.636C229.972 225.004 234.887 224.738 239.759 225.007C242.262 225.175 244.772 224.848 247.266 224.315C252.631 224.807 258.413 223.974 263.268 227.845C265.975 229.831 267.736 233.709 268.546 237.854C268.496 244.101 266.843 250.931 262.679 253.888C254.709 259.021 245.829 257.031 237.433 257.075C231.913 256.475 226.078 256.915 220.984 253.437C219.048 252.466 217.129 251.371 215.487 249.565L215.188 249.267C214.511 245.487 213.5 241.623 214.157 237.641M225.826 227.56C222.697 227.083 220.173 230.63 218.136 233.649L218.12 234.482C216.263 239.432 217.036 246.129 220.295 249.327C224.476 253.258 229.768 252.058 234.528 252.735C236.897 253.587 239.373 253.188 241.771 253.794C246 255.04 250.354 254.416 254.646 254.747C255.697 254.463 257.394 255.561 257.853 253.518C258.721 253.383 259.59 253.217 260.461 253.009L260.011 252.006C260.389 252.029 261.138 252.065 261.509 252.077C262.103 251.552 262.704 251.027 263.304 250.512C264.53 248.104 265.769 245.521 265.601 242.407C266.156 236.497 263.054 231.059 259.193 229.693C253.065 227.631 246.648 228.69 240.411 227.695C235.547 227.88 230.668 226.396 225.826 227.56Z" fill="#d13b22" fill-rule="nonzero" opacity="1" stroke="none"/>
<path d="M225.181 223.636C228.189 222.905 231.22 223.327 234.241 223.347L234.626 223.371C235.682 223.438 236.744 223.515 237.807 223.582L238.399 223.602C239.311 223.695 240.224 223.726 241.139 223.716C241.616 223.773 242.563 223.877 243.033 223.924C243.318 223.955 243.882 223.994 244.167 224.014L244.701 224.063L246.511 224.248L247.266 224.315C244.772 224.848 242.262 225.174 239.759 225.007C234.887 224.738 229.972 225.004 225.181 223.636Z" fill="#f75940" fill-rule="nonzero" opacity="1" stroke="none"/>
<path d="M154.333 226.899C154.451 226.769 154.672 226.529 154.783 226.399C155.656 227.592 156.514 228.815 157.417 229.968C158.528 230.346 159.686 230.323 160.827 230.115C167.812 229.436 174.807 227.667 181.807 228.214C188.369 228.581 193.309 238.435 191.674 247.623C191.548 247.804 191.294 248.187 191.16 248.378C190.84 248.573 190.185 248.983 189.865 249.178C190.412 245.789 191.017 242.135 190.106 238.79C189.441 235.061 186.992 233.012 184.758 231.443C184.393 231.719 183.655 232.271 183.283 232.546C181.576 232.293 179.861 232.049 178.137 232.145C164.346 233.477 150.583 235.83 136.792 236.678C137.735 235.434 138.685 234.2 139.553 232.84L140.312 234.029C142.179 232.692 143.242 229.764 144.667 227.641C144.155 229.064 143.684 230.53 143.213 231.997L144.119 232.316C146.09 233.34 148.205 233.319 150.274 232.927C149.98 232.7 149.399 232.269 149.106 232.053L148.448 231.578L149.277 231.544C149.635 231.525 150.344 231.478 150.702 231.459C152.7 232.288 154.777 232.596 156.855 232.121C156.081 231.714 155.306 231.327 154.531 230.961C155.458 230.756 156.394 230.52 157.323 230.263C156.349 229.098 155.36 227.963 154.333 226.899Z" fill="#cd3b23" fill-rule="nonzero" opacity="1" stroke="none"/>
<path d="M150.701 231.459C151.978 231.296 153.255 231.113 154.531 230.961C155.306 231.327 156.081 231.714 156.855 232.121C154.777 232.596 152.7 232.288 150.701 231.459Z" fill="#ef4f36" fill-rule="nonzero" opacity="1" stroke="none"/>
<path d="M375.521 251.59C375.551 247.062 375.681 242.537 376.024 238.03C377.011 242.5 376.37 247.152 375.521 251.59ZM373.968 281.368C373.969 276.849 374.113 272.325 374.449 267.828C375.457 272.288 374.838 276.951 373.968 281.368Z" fill="#bc3924" fill-rule="nonzero" opacity="1" stroke="none"/>
<path d="M144.119 232.316C145.779 232.228 147.441 232.068 149.106 232.053C149.399 232.269 149.98 232.7 150.274 232.927C148.205 233.319 146.09 233.34 144.119 232.316Z" fill="#f15238" fill-rule="nonzero" opacity="1" stroke="none"/>
<path d="M18.5591 238.864C19.2079 239.658 19.8561 240.473 20.4894 241.308C21.5003 244.924 22.6485 248.484 24.2885 251.586C26.24 256.285 29.0656 260.148 32.3978 262.784C36.0467 266.335 40.2983 268.302 44.5889 269.652C43.7097 270.168 42.8308 270.673 41.9519 271.179C38.1411 269.289 34.274 267.366 30.9241 264.102C25.2753 258.537 20.9261 250.504 18.3953 241.34C18.4344 240.723 18.52 239.481 18.5591 238.864Z" fill="#e7523a" fill-rule="nonzero" opacity="1" stroke="none"/>
<path d="M347.582 262.035C350.24 258.77 351.466 253.86 353.946 250.362C353.365 252.422 352.756 254.48 351.986 256.431C349.552 261.598 346.391 266.204 342.361 268.703C343.892 266.15 345.812 264.219 347.582 262.035Z" fill="#9d2210" fill-rule="nonzero" opacity="1" stroke="none"/>
<path d="M234.528 252.735C242.325 252.403 250.063 253.85 257.853 253.518C257.394 255.561 255.697 254.463 254.646 254.747C250.354 254.416 246 255.04 241.771 253.794C239.373 253.188 236.897 253.587 234.528 252.735Z" fill="#c2796d" fill-rule="nonzero" opacity="1" stroke="none"/>
<path d="M117.88 261.676C119.895 259.912 122.346 261.416 124.503 261.675C122.315 262.475 120.06 262.141 117.88 261.676Z" fill="#f95a41" fill-rule="nonzero" opacity="1" stroke="none"/>
<path d="M479.097 279.755C484.909 281.116 490.742 279.019 496.572 279.248C496.44 280.118 496.315 280.989 496.197 281.86C490.576 280.32 483.871 285.929 479.097 279.755Z" fill="#b7321d" fill-rule="nonzero" opacity="1" stroke="none"/>
<path d="M351.908 275.842L353.181 275.072C351.926 286.187 352.263 298.118 348.286 308.256C345.496 315.14 339.874 318.377 334.623 319.125C327.809 319.83 320.244 319.789 314.574 313.718C310.396 309.448 308.916 301.256 304.166 297.965C301.93 296.242 299.267 296.419 296.826 297.088C291.185 299.49 288.653 309.563 291.405 316.729L291.582 317.28C290.009 318.102 290.96 320.038 291.486 321.157C294.262 326.481 298.008 330.643 302.169 333.513C308.641 338.025 315.772 340.965 323.049 341.068C322.291 341.608 321.546 342.17 320.801 342.741C326.797 342.935 332.8 342.841 338.772 343.62C333.95 344.609 329.085 343.867 324.256 343.837C315.133 343.835 305.973 340.642 298.224 333.811C295.53 331.362 293.484 327.7 290.668 325.504C290.563 325.192 290.36 324.547 290.262 324.224C288.974 320.3 287.492 316.431 287.082 312.042C287.088 310.581 287.136 309.131 287.256 307.684C287.731 303.582 289.081 299.614 291.358 296.943C292.366 295.896 293.409 294.913 294.492 294.013C295.378 293.518 296.29 293.096 297.215 292.736L297.487 292.715C300.546 293.91 303.99 293.914 306.601 296.782C309.678 299.83 311.15 305.068 313.973 308.52L314.025 306.7C316.811 311.941 321.299 314.4 325.8 314.862C331.223 315.355 337.128 315.7 342.02 311.522C345.211 308.862 346.716 303.715 347.719 298.88C348.102 296.742 348.406 294.59 348.69 292.428C349.009 289.752 349.194 287.052 349.4 284.362C346.989 286.719 344.637 289.264 342.019 291.11C334.3 296.715 325.332 297.532 317.003 295.53C312.028 294.105 306.807 291.591 303.507 285.807C307.757 287.341 311.533 290.681 315.758 292.358C321.006 294.698 326.608 294.168 332.054 294.065C331.892 293.514 331.558 292.432 331.395 291.881C339.297 290.637 346.743 284.57 351.908 275.842Z" fill="#d13a22" fill-rule="nonzero" opacity="1" stroke="none"/>
<path d="M297.487 292.715L298.397 292.622C300.826 292.612 303.359 292.739 305.595 294.226C307.601 295.539 309.089 297.958 310.611 300.181C310.89 300.674 311.44 301.661 311.719 302.154C312.512 303.643 313.276 305.151 314.025 306.7L313.973 308.52C311.15 305.068 309.678 299.83 306.601 296.782C303.99 293.914 300.546 293.91 297.487 292.715Z" fill="#ef5036" fill-rule="nonzero" opacity="1" stroke="none"/>
<path d="M291.486 321.157C290.96 320.038 290.009 318.102 291.582 317.28C292.884 321.205 294.882 324.557 297.317 327.089C305.074 335.608 314.927 338.805 324.526 340.161C324.155 340.385 323.42 340.844 323.049 341.068C315.772 340.965 308.641 338.025 302.169 333.513C298.008 330.643 294.262 326.481 291.486 321.157Z" fill="#e9543c" fill-rule="nonzero" opacity="1" stroke="none"/>
</g>
</svg>
